<?xml version="1.0" encoding="UTF-8"?> <svg xmlns="http://www.w3.org/2000/svg" viewBox="0 0 1920 1920"><defs><style>.cls-1{fill:#f63;}.cls-2{fill:#fff;}</style></defs><g id="Layer_1" data-name="Layer 1"><path class="cls-1" d="M1828.57,1828.57H91.43V91.43H1828.57V1828.57M1920,1920V0H0V1920Z"></path><path class="cls-2" d="M357.8,1236.75c0,53.38-34.59,73.14-87,73.14h-1c-52.39,0-87-19.27-87-73.14V1029.19c0-51.4,34.59-73.14,87-73.14h1c52.38,0,87,21.74,87,73.14v63.26H300.48v-54.37c0-24.21-11.86-31.63-30.15-31.63s-30.15,7.42-30.15,31.63v189.78c0,24.21,11.87,31.63,30.15,31.63s30.15-7.42,30.15-31.63v-62.77H357.8Z"></path><path class="cls-2" d="M576.24,1236.75c0,53.38-33.61,73.14-86,73.14h-2c-52.38,0-86-19.27-86-73.14V960h57.33v267.86c0,24.71,10.87,31.63,29.65,31.63s29.65-6.92,29.65-31.63V960h57.33Z"></path><path class="cls-2" d="M770.47,1305.94H624.68V960H682v294.54h88.47Z"></path><path class="cls-2" d="M924.66,1010.41H866.84v295.53H809.51V1010.41H751.69V960h173Z"></path><path class="cls-2" d="M1182.14,1305.94l-16.31-24.21c-13.84,18.77-34.1,28.16-66.72,28.16h-3.45c-52.39,0-74.13-27.67-74.13-69.18v-77.1c0-24.71,9.39-44.48,23.72-55.35-11.86-18.78-18.29-35.58-18.29-59.8v-21.25c0-51.4,32.12-71.16,84.51-71.16h1c52.38,0,85,19.76,84.51,71.16v46.46H1142.6v-39.54c0-23.72-13.83-29.65-29.65-29.65s-29.65,5.93-29.65,29.65v13.34c0,18.29,1.48,23.73,21.25,53.87l46,70.67,15.32-54.85h52.39l-31.14,111.19,50.41,77.59Zm-48.92-73.64-54.86-82.53a30.08,30.08,0,0,0-.5,6.92v71.17c0,24.21,5.93,34.59,25.21,34.59S1127.28,1252.07,1133.22,1232.3Z"></path><path class="cls-2" d="M317.77,1557.32c30.15,4.94,40.53,28.17,40.53,54.85V1669c0,43.49-33.61,68.2-86,68.2H182.86V1391.27h90.43c52.39,0,83,24.71,83,68.2V1503C356.32,1527.67,345.45,1553.86,317.77,1557.32Zm-77.59-23.23h32.13c16.31,0,26.69-8.4,26.69-26.69v-40c0-18.28-10.38-26.68-26.69-26.68H240.18Zm34.1,48.43h-34.1v105.27h34.1c16.31,0,26.69-8.4,26.69-26.69v-51.89C301,1590.92,290.59,1582.52,274.28,1582.52Z"></path><path class="cls-2" d="M485.81,1387.31h3.95c52.39,0,87,20.76,87,73.14V1668c0,52.38-34.59,73.14-87,73.14h-3.95c-52.39,0-87-20.76-87-73.14V1460.45C398.82,1407.58,433.42,1387.31,485.81,1387.31Zm2,303.44c18.78,0,31.63-6.92,31.63-31.63V1469.35c0-24.71-12.85-31.63-31.63-31.63s-31.63,6.92-31.63,31.63v189.77C456.15,1683.83,469,1690.75,487.78,1690.75Z"></path><path class="cls-2" d="M797.16,1668c0,53.37-33.61,73.14-86,73.14h-2c-52.39,0-86-19.27-86-73.14V1391.27h57.33v267.85c0,24.71,10.88,31.63,29.66,31.63s29.65-6.92,29.65-31.63V1391.27h57.33Z"></path><path class="cls-2" d="M998.79,1441.67H941v295.54H883.65V1441.67H825.82v-50.4h173Z"></path><path class="cls-2" d="M1030.42,1737.21V1391.27h57.33v345.94Z"></path><path class="cls-2" d="M1315.09,1460.45V1668c0,43.49-23.72,65.23-61.78,71.16v47.45h-52.38v-47c-39-5.93-63.76-27.68-63.76-71.66V1460.45c0-52.87,34.6-73.14,87-73.14h3.95C1280.49,1387.31,1315.09,1408.07,1315.09,1460.45Zm-57.33,8.9c0-24.71-12.85-31.63-31.63-31.63s-31.63,6.92-31.63,31.63v189.77c0,24.71,12.85,31.63,31.63,31.63s31.63-6.92,31.63-31.63Z"></path><path class="cls-2" d="M1535.5,1668c0,53.37-33.6,73.14-86,73.14h-2c-52.39,0-86-19.27-86-73.14V1391.27h57.32v267.85c0,24.71,10.88,31.63,29.66,31.63s29.65-6.92,29.65-31.63V1391.27h57.32Z"></path><path class="cls-2" d="M1583.94,1737.21V1391.27h151.72v50.4h-94.39v94.89h79.07V1587h-79.07v99.83h95.87v50.41Z"></path></g></svg> 