<?xml version="1.0" encoding="UTF-8"?> <svg xmlns="http://www.w3.org/2000/svg" id="Layer_1" data-name="Layer 1" viewBox="0 0 1280 392"><defs><style> .cls-1 { fill: #1d1f21; } .cls-1, .cls-2 { stroke-width: 0px; } .cls-2 { fill: #f16738; } </style></defs><g><path class="cls-2" d="m416.38.43v103.7h103.7V.43h-103.7Zm12.89,90.8V13.32h77.91v77.91h-77.91Z"></path><g><path class="cls-1" d="m584.72,74.89c0,11.71-7.59,16.04-19.08,16.04h-.22c-11.49,0-19.08-4.23-19.08-16.04V29.37c0-11.27,7.59-16.04,19.08-16.04h.22c11.49,0,19.08,4.77,19.08,16.04v13.87h-12.57v-11.92c0-5.31-2.6-6.94-6.61-6.94s-6.61,1.62-6.61,6.94v41.62c0,5.31,2.6,6.94,6.61,6.94s6.61-1.63,6.61-6.94v-13.77h12.57v15.72Z"></path><path class="cls-1" d="m632.63,74.89c0,11.71-7.37,16.04-18.86,16.04h-.43c-11.49,0-18.86-4.23-18.86-16.04V14.19h12.57v58.75c0,5.42,2.38,6.94,6.5,6.94s6.5-1.52,6.5-6.94V14.19h12.57v60.7Z"></path><path class="cls-1" d="m675.24,90.07h-31.98V14.19h12.57v64.61h19.4v11.27Z"></path><path class="cls-1" d="m709.07,25.25h-12.68v64.82h-12.57V25.25h-12.68v-11.06h37.94v11.06Z"></path><path class="cls-1" d="m765.55,90.07l-3.58-5.31c-3.04,4.12-7.48,6.18-14.63,6.18h-.76c-11.49,0-16.26-6.07-16.26-15.17v-16.91c0-5.42,2.06-9.76,5.2-12.14-2.6-4.12-4.01-7.8-4.01-13.11v-4.66c0-11.27,7.05-15.61,18.54-15.61h.22c11.49,0,18.64,4.34,18.54,15.61v10.19h-11.92v-8.67c0-5.2-3.03-6.5-6.5-6.5s-6.5,1.3-6.5,6.5v2.93c0,4.01.32,5.2,4.66,11.82l10.08,15.5,3.36-12.03h11.49l-6.83,24.39,11.06,17.02h-12.14Zm-10.73-16.15l-12.03-18.1c-.11.43-.11.98-.11,1.52v15.61c0,5.31,1.3,7.59,5.53,7.59s5.31-2.28,6.61-6.61Z"></path><path class="cls-1" d="m828.97,50.61c6.61,1.08,8.89,6.18,8.89,12.03v12.47c0,9.54-7.37,14.96-18.86,14.96h-19.62V14.19h19.84c11.49,0,18.21,5.42,18.21,14.96v9.54c0,5.42-2.38,11.17-8.46,11.92Zm-17.02-5.09h7.05c3.58,0,5.85-1.84,5.85-5.85v-8.78c0-4.01-2.28-5.85-5.85-5.85h-7.05v20.49Zm7.48,10.62h-7.48v23.09h7.48c3.58,0,5.85-1.84,5.85-5.85v-11.38c0-4.01-2.28-5.85-5.85-5.85Z"></path><path class="cls-1" d="m865.83,13.32h.87c11.49,0,19.08,4.55,19.08,16.04v45.53c0,11.49-7.59,16.04-19.08,16.04h-.87c-11.49,0-19.08-4.55-19.08-16.04V29.37c0-11.6,7.59-16.04,19.08-16.04Zm.43,66.56c4.12,0,6.94-1.52,6.94-6.94V31.32c0-5.42-2.82-6.94-6.94-6.94s-6.94,1.52-6.94,6.94v41.62c0,5.42,2.82,6.94,6.94,6.94Z"></path><path class="cls-1" d="m934.13,74.89c0,11.71-7.37,16.04-18.86,16.04h-.43c-11.49,0-18.86-4.23-18.86-16.04V14.19h12.57v58.75c0,5.42,2.38,6.94,6.5,6.94s6.5-1.52,6.5-6.94V14.19h12.57v60.7Z"></path><path class="cls-1" d="m978.36,25.25h-12.68v64.82h-12.57V25.25h-12.68v-11.06h37.94v11.06Z"></path><path class="cls-1" d="m985.31,90.07V14.19h12.57v75.88h-12.57Z"></path><path class="cls-1" d="m1047.75,29.37v45.53c0,9.54-5.2,14.31-13.55,15.61v10.41h-11.49v-10.3c-8.56-1.3-13.98-6.07-13.98-15.72V29.37c0-11.6,7.59-16.04,19.08-16.04h.87c11.49,0,19.08,4.55,19.08,16.04Zm-12.57,1.95c0-5.42-2.82-6.94-6.94-6.94s-6.94,1.52-6.94,6.94v41.62c0,5.42,2.82,6.94,6.94,6.94s6.94-1.52,6.94-6.94V31.32Z"></path><path class="cls-1" d="m1096.1,74.89c0,11.71-7.37,16.04-18.86,16.04h-.43c-11.49,0-18.86-4.23-18.86-16.04V14.19h12.57v58.75c0,5.42,2.38,6.94,6.5,6.94s6.5-1.52,6.5-6.94V14.19h12.57v60.7Z"></path><path class="cls-1" d="m1106.73,90.07V14.19h33.28v11.06h-20.7v20.81h17.34v11.06h-17.34v21.9h21.03v11.06h-33.6Z"></path></g></g><g><path class="cls-1" d="m340.62,93.69c-2.94,2.94-11.09,10.44-20.55,35.89-15.99,42.74-40.46,106.03-59.05,155.95l-14.36,31.98h-6.2c-23.49-60.69-40.78-106.04-59.05-152.04-13.38,37.85-28.39,82.55-41.76,119.41l-14.36,32.63h-6.52c-29.04-71.78-52.2-125.61-74.71-180.75-6.85-16.31-9.79-23.49-15.33-34.26-2.61-4.89-9.79-17.29-28.71-17.94v-3.59h106.69v3.26c-4.24.33-23.49,1.96-23.49,16.64,0,9.13,41.76,105.71,61.34,152.36,6.85-19.25,19.9-56.45,33.28-97.23-7.5-18.6-16.64-40.46-23.49-53.51-3.59-6.52-11.42-17.29-32.63-17.94v-3.59h116.15v3.26c-5.22.65-29.69,3.26-29.69,16.64,0,7.83,43.07,114.52,58.4,153.02,9.14-24.14,30.67-81.24,43.72-119.74,6.85-19.9,6.85-27.73,6.85-31.97,0-12.72-16.64-16.64-27.41-17.94v-3.26h71.78v3.26c-10.77,1.31-19.58,7.83-20.88,9.46Z"></path><path class="cls-1" d="m435.58,200.38c-19.25,0-18.27-12.72-24.14-12.72-9.46,0-19.58,8.81-24.14,21.2v92.66c2.94,8.16,18.92,9.79,27.73,11.09v3.26h-86.46v-3.26c10.12-.98,18.6-6.2,18.6-13.05v-102.45c0-3.26-.32-4.89-3.26-6.85-3.92-2.28-10.12-5.87-15.34-8.16v-1.96l56.45-23.49h1.96l-.65,45.68h.65c4.57-10.44,16.96-45.35,45.03-45.35,11.42,0,20.23,9.46,20.23,22.18s-9.14,21.21-16.64,21.21Z"></path><path class="cls-1" d="m563.49,317.51c-16.97,0-32.63-10.77-33.93-31l-.65-.32c-6.85,16.31-21.86,31.32-46,31.32-15.99,0-32.3-10.12-32.3-32.63,0-12.72,11.09-26.43,25.78-34.58,29.36-16.31,43.39-22.84,52.53-28.39v-24.8c-1.96-12.72-12.07-23.49-24.47-25.12-13.38,1.96-15.01,9.46-15.01,15.01v25.12c0,6.2-11.74,12.72-22.18,12.72-9.46,0-18.6-6.52-18.6-15.34,0-12.72,7.83-19.25,18.6-25.77,20.55-12.4,53.83-26.1,66.23-26.75,15.01.98,25.77,5.87,33.61,21.53,1.63,2.94,1.96,11.74,1.96,19.25,0,31-.98,38.83-.98,68.51,0,19.58,7.83,24.47,16.31,24.47,10.11,0,14.03-5.87,15.66-12.4h2.28c-.98,16.64-16.31,39.15-38.83,39.15Zm-34.59-91.03c-13.7,10.44-38.5,17.29-38.5,44.05,0,10.76,8.81,19.57,18.27,19.57,6.2,0,16.31-1.96,18.27-5.54,1.63-2.61,1.96-4.9,1.96-8.16v-49.92Z"></path><path class="cls-1" d="m678.34,315.55c-7.5,0-14.36-.98-22.51-2.61.33,13.7.65,47.96.65,63.95,1.63,7.83,17.94,9.79,26.75,11.09v3.59h-93.96v-3.59c10.12-.98,26.76-6.52,26.76-13.7v-173.57c0-3.26-.33-4.89-3.26-6.85-3.92-2.28-15.33-7.18-20.55-9.46v-1.96l61.66-25.78h1.96v36.87l.33.65c11.74-16.31,28.39-37.19,52.2-37.19,39.8,0,58.73,37.52,58.73,70.8,0,51.22-32.95,87.76-88.74,87.76Zm6.85-130.51c-16.96,0-29.04,12.4-29.04,16.31,0,5.22-.65,21.86-.65,29.04,0,10.77.32,23.82.98,33.93,1.63,20.23,12.07,45.03,30.02,45.03,20.56,0,37.85-30.02,37.85-68.84,0-30.34-12.4-55.47-39.15-55.47Z"></path><path class="cls-1" d="m856.49,315.55c-7.5,0-14.36-.98-22.51-2.61.33,13.7.65,47.96.65,63.95,1.63,7.83,17.94,9.79,26.75,11.09v3.59h-93.96v-3.59c10.12-.98,26.76-6.52,26.76-13.7v-173.57c0-3.26-.33-4.89-3.26-6.85-3.92-2.28-15.33-7.18-20.55-9.46v-1.96l61.66-25.78h1.96v36.87l.33.65c11.74-16.31,28.39-37.19,52.2-37.19,39.8,0,58.73,37.52,58.73,70.8,0,51.22-32.95,87.76-88.74,87.76Zm6.85-130.51c-16.96,0-29.04,12.4-29.04,16.31,0,5.22-.65,21.86-.65,29.04,0,10.77.32,23.82.98,33.93,1.63,20.23,12.07,45.03,30.02,45.03,20.56,0,37.85-30.02,37.85-68.84,0-30.34-12.4-55.47-39.15-55.47Z"></path><path class="cls-1" d="m1035.62,317.51c-48.94,0-77.98-37.85-77.98-83.85,0-36.87,27.41-76.67,73.41-76.67,35.89,0,63.95,16.96,66.23,54.49h-99.18c-.32,3.59-.32,6.85-.32,9.79,0,37.85,20.55,66.55,54.16,66.55,19.58,0,40.46-10.44,45.68-26.75l3.26.65c-4.24,20.23-22.84,55.79-65.25,55.79Zm-7.18-154.98c-18.92,0-29.37,32.3-30.02,44.37,15.33,0,21.86-.65,38.17-1.3,2.61,0,7.5-.65,10.76-2.28,2.94-2.94,4.24-6.2,4.24-11.75,0-14.03-8.16-29.04-23.16-29.04Z"></path><path class="cls-1" d="m1218.66,318.16h-1.96v-33.28l-.33-.65c-11.74,21.53-27.41,33.28-52.2,33.28-30.99,0-61.01-28.39-61.01-78.96,0-45.35,31.97-81.56,79.94-81.56,13.05,0,24.14,2.61,33.61,5.54l-.65-49.26-26.75-10.77v-1.96l64.93-21.53h2.61v206.52c3.26,1.96,15.01,7.5,23.16,10.77v2.28l-61.34,19.58Zm-2.28-118.76c-7.18-17.94-21.2-36.54-31.97-36.54-27.41,0-37.52,34.59-37.52,69.82,0,32.95,13.7,64.93,40.78,64.93,13.38,0,26.1-7.83,28.71-25.12v-73.08Z"></path></g></svg> 