<?xml version="1.0" encoding="UTF-8"?> <svg xmlns="http://www.w3.org/2000/svg" id="a" viewBox="0 0 744.01 231.99"><defs><style> .cls-1, .cls-2 { stroke-width: 0px; } .cls-2 { fill: #f63; } </style></defs><path class="cls-2" d="m220.95,0H0v231.99h232S232,0,232,0h-11.05ZM22.1,209.9V22.1h187.8v187.8H22.1Z"></path><g><g><path class="cls-1" d="m286.25,76.04c0,9.65-6.25,13.22-15.72,13.22h-.18c-9.47,0-15.72-3.48-15.72-13.22v-37.51c0-9.29,6.25-13.22,15.72-13.22h.18c9.47,0,15.72,3.93,15.72,13.22v11.43h-10.36v-9.83c0-4.38-2.14-5.72-5.45-5.72s-5.45,1.34-5.45,5.72v34.3c0,4.38,2.14,5.72,5.45,5.72s5.45-1.34,5.45-5.72v-11.34h10.36v12.95Z"></path><path class="cls-1" d="m325.73,76.04c0,9.65-6.07,13.22-15.54,13.22h-.36c-9.47,0-15.54-3.48-15.54-13.22V26.02h10.36v48.41c0,4.47,1.97,5.72,5.36,5.72s5.36-1.25,5.36-5.72V26.02h10.36v50.02h0Z"></path><path class="cls-1" d="m360.83,88.55h-26.35V26.02h10.36v53.24h15.99v9.29h0Z"></path><path class="cls-1" d="m388.7,35.13h-10.45v53.42h-10.36v-53.42h-10.45v-9.11h31.26v9.11Z"></path><path class="cls-1" d="m435.24,88.55l-2.95-4.38c-2.5,3.39-6.16,5.09-12.06,5.09h-.63c-9.47,0-13.4-5-13.4-12.51v-13.94c0-4.47,1.7-8.04,4.29-10-2.14-3.39-3.31-6.43-3.31-10.81v-3.84c0-9.29,5.81-12.86,15.27-12.86h.18c9.47,0,15.36,3.57,15.27,12.86v8.4h-9.83v-7.15c0-4.29-2.5-5.36-5.36-5.36s-5.36,1.07-5.36,5.36v2.41c0,3.31.27,4.29,3.84,9.74l8.31,12.77,2.77-9.91h9.47l-5.63,20.1,9.11,14.02h-10,.02Zm-8.84-13.31l-9.92-14.92c-.09.36-.09.8-.09,1.25v12.86c0,4.38,1.07,6.25,4.56,6.25s4.38-1.88,5.45-5.45h0Z"></path><path class="cls-1" d="m487.49,56.04c5.45.89,7.32,5.09,7.32,9.92v10.27c0,7.86-6.07,12.33-15.54,12.33h-16.17V26.02h16.35c9.47,0,15.01,4.47,15.01,12.33v7.86c0,4.47-1.97,9.2-6.97,9.83Zm-14.02-4.2h5.81c2.95,0,4.82-1.52,4.82-4.82v-7.23c0-3.31-1.88-4.82-4.82-4.82h-5.81v16.88h0Zm6.16,8.75h-6.16v19.03h6.16c2.95,0,4.82-1.52,4.82-4.82v-9.38c0-3.31-1.88-4.82-4.82-4.82h0Z"></path><path class="cls-1" d="m517.85,25.31h.71c9.47,0,15.72,3.75,15.72,13.22v37.52c0,9.47-6.25,13.22-15.72,13.22h-.71c-9.47,0-15.72-3.75-15.72-13.22v-37.52c0-9.56,6.25-13.22,15.72-13.22Zm.36,54.85c3.39,0,5.72-1.25,5.72-5.72v-34.3c0-4.47-2.32-5.72-5.72-5.72s-5.72,1.25-5.72,5.72v34.3c0,4.47,2.32,5.72,5.72,5.72Z"></path><path class="cls-1" d="m574.12,76.04c0,9.65-6.07,13.22-15.54,13.22h-.36c-9.47,0-15.54-3.48-15.54-13.22V26.02h10.36v48.41c0,4.47,1.97,5.72,5.36,5.72s5.36-1.25,5.36-5.72V26.02h10.36v50.02Z"></path><path class="cls-1" d="m610.57,35.13h-10.45v53.42h-10.36v-53.42h-10.45v-9.11h31.26v9.11Z"></path><path class="cls-1" d="m616.28,88.55V26.02h10.36v62.53h-10.36Z"></path><path class="cls-1" d="m667.73,38.53v37.52c0,7.86-4.29,11.79-11.17,12.86v8.58h-9.47v-8.49c-7.06-1.07-11.52-5-11.52-12.95v-37.52c0-9.56,6.25-13.22,15.72-13.22h.71c9.47,0,15.72,3.75,15.72,13.22h.01Zm-10.36,1.61c0-4.47-2.32-5.72-5.72-5.72s-5.72,1.25-5.72,5.72v34.3c0,4.47,2.32,5.72,5.72,5.72s5.72-1.25,5.72-5.72v-34.3Z"></path><path class="cls-1" d="m707.57,76.04c0,9.65-6.07,13.22-15.54,13.22h-.36c-9.47,0-15.54-3.48-15.54-13.22V26.02h10.36v48.41c0,4.47,1.96,5.72,5.36,5.72s5.36-1.25,5.36-5.72V26.02h10.36v50.02Z"></path><path class="cls-1" d="m716.32,88.55V26.02h27.42v9.11h-17.06v17.15h14.29v9.11h-14.29v18.04h17.33v9.11h-27.69Z"></path></g><g><path class="cls-1" d="m304.7,185.63c0,15.36-9.67,21.05-24.75,21.05h-.57c-15.08,0-24.75-5.55-24.75-21.05v-79.64h16.5v77.09c0,7.11,3.13,9.1,8.53,9.1s8.53-1.99,8.53-9.1v-77.09h16.5v79.65h.01Z"></path><path class="cls-1" d="m318.63,205.55v-99.56h16.5l20.91,61.58v-61.58h15.08v99.56h-15.65l-21.76-64.71v64.71h-15.08Z"></path><path class="cls-1" d="m435.11,185.63c0,15.36-9.96,21.05-25.03,21.05h-.28c-15.08,0-25.03-5.55-25.03-21.05v-59.74c0-14.79,9.96-21.05,25.03-21.05h.28c15.08,0,25.03,6.26,25.03,21.05v18.21h-16.5v-15.64c0-6.97-3.41-9.1-8.68-9.1s-8.68,2.13-8.68,9.1v54.62c0,6.97,3.41,9.1,8.68,9.1s8.68-2.13,8.68-9.1v-18.06h16.5v20.62h0Z"></path><path class="cls-1" d="m472.65,104.85h1.14c15.08,0,25.03,5.97,25.03,21.05v59.74c0,15.08-9.96,21.05-25.03,21.05h-1.14c-15.08,0-25.03-5.97-25.03-21.05v-59.74c0-15.22,9.96-21.05,25.03-21.05Zm.57,87.33c5.4,0,9.1-1.99,9.1-9.1v-54.62c0-7.11-3.7-9.1-9.1-9.1s-9.1,1.99-9.1,9.1v54.62c0,7.11,3.7,9.1,9.1,9.1Z"></path><path class="cls-1" d="m549.88,205.55l-12.66-39.68h-8.25v39.68h-16.5v-99.56h25.74c15.08,0,25.03,5.97,25.03,21.05v17.78c0,9.53-3.98,15.5-10.81,18.49l14.22,42.24h-16.78.01Zm-20.91-53.9h8.68c5.4,0,9.1-1.99,9.1-9.1v-12.94c0-7.11-3.7-9.1-9.1-9.1h-8.68v31.15h0Z"></path><path class="cls-1" d="m614.16,205.55l-13.65-43.24-7.4,14.51v28.73h-16.5v-99.56h16.5v44.8l18.77-44.8h17.35l-19.06,37.41,20.77,62.15h-16.78,0Z"></path><path class="cls-1" d="m637.77,205.55v-99.56h43.66v14.51h-27.17v27.31h22.76v14.51h-22.76v28.73h27.59v14.51h-44.09.01Z"></path><path class="cls-1" d="m744.01,127.04v57.46c0,15.08-9.96,21.05-25.03,21.05h-25.46v-99.56h25.46c15.08,0,25.03,5.97,25.03,21.05Zm-25.6-6.54h-8.39v70.54h8.39c5.4,0,9.1-1.99,9.1-9.1v-52.34c0-7.11-3.7-9.1-9.1-9.1Z"></path></g></g></svg> 