<?xml version="1.0" encoding="UTF-8"?> <svg xmlns="http://www.w3.org/2000/svg" id="Layer_1" viewBox="0 0 4505 671.71"><defs><style>.cls-1{fill:#fff;}.cls-2{fill:#f63;}</style></defs><path class="cls-2" d="m0,0v671.71h671.71V0H0Zm607.74,63.97v543.77H63.97V63.97h543.77Z"></path><path class="cls-1" d="m1065.73,479.47c0,72.48-46.98,99.32-118.11,99.32h-1.34c-71.13,0-118.11-26.17-118.11-99.32V197.61c0-69.79,46.98-99.32,118.11-99.32h1.34c71.13,0,118.11,29.53,118.11,99.32v85.9h-77.85v-73.82c0-32.88-16.11-42.95-40.94-42.95s-40.94,10.07-40.94,42.95v257.7c0,32.88,16.11,42.95,40.94,42.95s40.94-10.07,40.94-42.95v-85.23h77.85v97.31Z"></path><path class="cls-1" d="m1362.34,479.47c0,72.48-45.63,99.32-116.77,99.32h-2.68c-71.13,0-116.77-26.17-116.77-99.32V103.66h77.85v363.73c0,33.55,14.76,42.95,40.26,42.95s40.26-9.39,40.26-42.95V103.66h77.85v375.81Z"></path><path class="cls-1" d="m1626.08,573.42h-197.97V103.66h77.85v399.96h120.12v69.79Z"></path><path class="cls-1" d="m1835.45,172.11h-78.52v401.31h-77.85V172.11h-78.52v-68.45h234.88v68.45Z"></path><path class="cls-1" d="m2185.08,573.42l-22.15-32.88c-18.79,25.5-46.3,38.25-90.6,38.25h-4.7c-71.13,0-100.66-37.58-100.66-93.95v-104.69c0-33.55,12.75-60.4,32.21-75.16-16.11-25.5-24.83-48.32-24.83-81.2v-28.86c0-69.79,43.62-96.64,114.75-96.64h1.34c71.13,0,115.43,26.84,114.75,96.64v63.08h-73.82v-53.69c0-32.21-18.79-40.26-40.27-40.26s-40.26,8.05-40.26,40.26v18.12c0,24.83,2.01,32.21,28.86,73.15l62.41,95.96,20.8-74.49h71.13l-42.28,150.99,68.45,105.36h-75.16Zm-66.44-99.99l-74.49-112.07c-.67,2.68-.67,6.04-.67,9.39v96.64c0,32.88,8.05,46.98,34.23,46.98s32.88-14.09,40.94-40.94Z"></path><path class="cls-1" d="m2577.66,329.15c40.94,6.71,55.03,38.25,55.03,74.49v77.17c0,59.06-45.63,92.61-116.77,92.61h-121.47V103.66h122.81c71.13,0,112.74,33.55,112.74,92.61v59.05c0,33.55-14.76,69.12-52.34,73.82Zm-105.36-31.54h43.62c22.15,0,36.24-11.41,36.24-36.24v-54.36c0-24.83-14.09-36.24-36.24-36.24h-43.62v126.83Zm46.3,65.77h-46.3v142.94h46.3c22.15,0,36.24-11.41,36.24-36.24v-70.46c0-24.83-14.09-36.24-36.24-36.24Z"></path><path class="cls-1" d="m2805.82,98.29h5.37c71.13,0,118.11,28.19,118.11,99.32v281.85c0,71.13-46.98,99.32-118.11,99.32h-5.37c-71.13,0-118.11-28.19-118.11-99.32V197.61c0-71.81,46.98-99.32,118.11-99.32Zm2.68,412.04c25.5,0,42.95-9.39,42.95-42.95V209.69c0-33.55-17.45-42.95-42.95-42.95s-42.95,9.4-42.95,42.95v257.7c0,33.55,17.45,42.95,42.95,42.95Z"></path><path class="cls-1" d="m3228.6,479.47c0,72.48-45.63,99.32-116.77,99.32h-2.68c-71.13,0-116.77-26.17-116.77-99.32V103.66h77.85v363.73c0,33.55,14.76,42.95,40.26,42.95s40.27-9.39,40.27-42.95V103.66h77.85v375.81Z"></path><path class="cls-1" d="m3502.41,172.11h-78.52v401.31h-77.85V172.11h-78.52v-68.45h234.88v68.45Z"></path><path class="cls-1" d="m3545.35,573.42V103.66h77.85v469.76h-77.85Z"></path><path class="cls-1" d="m3931.9,197.61v281.85c0,59.05-32.21,88.58-83.88,96.64v64.42h-71.13v-63.75c-53.02-8.05-86.57-37.58-86.57-97.31V197.61c0-71.81,46.97-99.32,118.11-99.32h5.37c71.13,0,118.11,28.19,118.11,99.32Zm-77.85,12.08c0-33.55-17.45-42.95-42.95-42.95s-42.95,9.4-42.95,42.95v257.7c0,33.55,17.45,42.95,42.95,42.95s42.95-9.39,42.95-42.95V209.69Z"></path><path class="cls-1" d="m4231.2,479.47c0,72.48-45.63,99.32-116.77,99.32h-2.68c-71.13,0-116.77-26.17-116.77-99.32V103.66h77.85v363.73c0,33.55,14.76,42.95,40.26,42.95s40.27-9.39,40.27-42.95V103.66h77.85v375.81Z"></path><path class="cls-1" d="m4296.96,573.42V103.66h206.02v68.45h-128.18v128.85h107.37v68.45h-107.37v135.56h130.19v68.45h-208.04Z"></path></svg> 