<?xml version="1.0" encoding="UTF-8"?> <svg xmlns="http://www.w3.org/2000/svg" id="Layer_1" viewBox="0 0 1080 1080"><defs><style>.cls-1{fill:#fb6a37;}</style></defs><path d="m417.22,601.93c-.18-30.95,1.86-61.82,3.54-92.69,1.6-29.42,2.71-58.96,10.21-87.7,5.33-20.43,12.8-39.89,27.46-55.71,12.92-13.94,28.17-24.33,46.69-29.47,5.18-1.44,10.47-.4,15.7-.79,1.92-.14,2.03-.51,1.8-2.12-3.58-24.93-.32-49.78.92-74.65,1.08-21.49,2.19-42.98,3.16-64.48.45-9.96.63-19.94.89-29.91.06-2.32.5-4.54,1.45-6.63,1.36-3,1.56-5.82.21-9-1.53-3.62.24-7.06,4.17-9.11,4.26-2.21,8.93-3.1,13.63-3.11,16.67-.06,33.35.06,50.02.25,6.17.07,11.94,2.57,17.63,4.39,4.26,1.36,7.64,5.37,8.82,10.68,2.02,9.05,1.68,18.14,1.26,27.23-2.15,46.85-3.47,93.71-2.89,140.62.04,3.29-1.36,7.49.19,9.63,1.51,2.09,5.93,2.06,9.06,3.01,25.21,7.58,38.41,25.98,45.38,50.14,6.22,21.57,9.75,43.61,11.82,65.89,3.77,40.58,6.95,81.2,8.16,121.96,1.05,35.63.88,71.26.11,106.88-.13,6.13-.11,12.26-.32,18.38-.09,2.48.95,3.17,3.03,2.34,15.17-6,30.28-2.12,45.38.3,2.67.43,5.09-.15,7.55-.82,10.7-2.92,21.4-2.82,32.06.14,2.04.57,4.06,1.36,5.94,2.32,9.24,4.69,11.34,11.15,6.93,20.4-1.32,2.78-4.52,5.08-4.04,8.14.46,2.91,4.18,4.02,6.12,6.3,3.26,3.81,5.81,8.1,8.46,12.31,15.15,24.08,24.74,49.94,24.71,78.76-.01,14.42-1.67,28.72-4.01,42.92-.82,4.99-.48,9.55,1.44,14.17,2.19,5.26,4.1,10.64,4.13,16.45.07,9.99-5.1,16.33-14.91,18.36-5.1,1.06-10.21,1.26-15.16-.6-1.83-.69-3.42-.53-4.85.48-14.63,10.31-32.02,13.79-48.49,19.51-7.24,2.52-14.67,4.51-22.01,6.74-5.66-5.83-11.16-11.81-16.14-18.24,7.55-2.02,15.11-4.02,22.65-6.07,18.77-5.13,36.88-12.61,56.19-15.84.65-.11,1.39-.47,1.83-.95,2.14-2.3,4.93-2.8,7.81-2.8,3.56,0,7.14.02,10.66.44,3.77.45,4.18-1.12,2.96-4.05-6.5-15.6-5.61-31.63-3.4-47.92,3.16-23.23,1.68-46.04-8.12-67.79-4.91-10.91-10.34-21.55-16.74-31.68-1.68-2.65-3.15-5.4-3.91-8.5-.65-2.62-2.01-4.33-4.89-5.26-5.56-1.79-7.01-7.98-3.22-12.42,1.1-1.29,2.38-2.38,3.35-3.84,1.64-2.48.87-3.46-1.78-3.81-7.29-.95-14.52-.82-21.57,1.4-4.72,1.49-9.44,2.01-14.33,1.22-13.18-2.14-26.77-.95-39.73-4.94-2.88-.88-4.12-.09-4.1,3.45.12,24.94-.03,49.89-.06,74.83,0,.75-.47,1.74.71,2.25,3.09-2.9,6.21-5.79,9.72-8.23,3.65-2.53,8.12-3.31,11.76-5.99,4.01-2.95,8.04-2.3,10.62,1.06,2.62,3.4,1.82,7.49-2.14,10.83-1.52,1.28-3.13,2.42-4.27,4.14-5.94,8.87-15.16,14.07-23.19,20.6-1.19.97-4.26.4-3.44,2.81.61,1.78,2.72-.03,4.17-.02,19.78.09,36.18,7.64,49.42,22.22,2.32,2.56,3.07,5.45,1.43,8.64-1.63,3.17-4.39,4.6-7.8,3.9-5.41-1.1-10.92-1.71-16.07-4.05-7.52-3.41-15.01-6.88-22.28-10.78-4.38-2.35-8.77-4.75-11.88-9.79-.67,3.99-1.63,6.98-5.05,8.54-1.62.74,0,1.59.5,2.23,2.75,3.5,2.18,6.85-.36,10.13-2.5,3.23-5.78,5.45-9.37,7.29-6.6,3.37-13.48,6.1-20.46,8.56-5.83-5.22-10.85-11.19-15.78-17.24,12.83-3.95,25.52-8.35,38.17-10.82-2.28-7.73-5.77-14.44-6.02-22.32-.99-31.5-1.19-63-.37-94.49,1.62-62.42,2.81-124.83-1.13-187.2-2.37-37.53-4.03-75.13-9.46-112.39-2.44-16.78-5.75-33.33-13.35-48.78-4.67-9.51-11.72-15.9-21.62-19.38-4.56-1.6-9.11-3.23-13.85-4.28-2.49-.55-4.98-1.23-7.37-2.12-7.48-2.78-9.14-7.99-4.66-14.49.61-.89.86-1.63.62-2.73-2.14-9.83-1.63-19.87-1.81-29.8-.77-43.19.05-86.36,3.19-129.46.35-4.75,1.19-9.47,1.84-14.57-3.87,1.66-7.52,2.18-11.23,2.26-14.96.31-29.93.43-44.87-.72-4.88-.38-4.82-.43-4.1,4.65.24,1.68.16,3.41.16,5.12.24,47.35-2.82,94.57-5.42,141.81-.52,9.37-.37,18.81-2.29,28.08-.57,2.77-1.49,6.41-4.09,6.39-5.46-.05-7.84,3.84-11.55,6.35-5.93,4.02-12.5,7.14-19.2,10-18.88,8.04-33.43,21.18-42.44,39.69-8.56,17.57-12.88,36.5-14.9,55.84-4.14,39.69-5.91,79.56-7.87,119.41-.83,16.82.15,33.63-.14,50.44-7.11-7.57-14.22-15.15-21.33-22.72Z"></path><path class="cls-1" d="m758.13,370.51c-4.94-14.87-11.06-29.29-16.65-43.91-17.24-45.09-35-89.99-54-134.37-9.98-23.31-20.21-46.49-28.04-70.64-.8-2.46-2.04-4.68-3.34-6.9-2.57-4.36-1.79-8.81,1.81-11.42,3.56-2.59,8.23-1.98,11.49,1.79,3.58,4.13,5.93,9.07,8.06,14.03,10.52,24.46,20.77,49.04,31.43,73.45,26.12,59.78,49.41,120.71,73.47,181.33.89,2.23,1.71,4.01,4.4,4.56,15.08,3.09,29.78,7.62,44.63,11.62,3.03.82,5.4.46,8.03-1.16,21.11-13,42.25-25.95,63.47-38.77,4.99-3.01,10.3-5.48,15.48-8.17,3.77-1.96,7.62-1.31,10.06,1.65,2.47,3,2.47,6.79-.32,10.17-4.1,4.97-8.87,9.27-14.18,12.93-14.8,10.19-30.37,19.14-45.61,28.61-1.18.74-2.35,1.5-3.63,2.32,1.41,1.63,3.24,1.42,4.78,1.86,35.71,10.26,71.45,20.45,107.16,30.71,7.11,2.04,14.36,3.58,21.32,6.17,4.71,1.75,7.09,4.43,6.59,8.15-.53,4-3.65,6.56-8.57,6.8-11.11.54-21.82-1.94-32.42-4.77-40.85-10.92-81.67-21.93-122.48-32.98-2.21-.6-3.99-.52-6.06.59-8.79,4.71-17.61,9.37-26.57,13.74-3.18,1.55-3.52,3.02-2.2,6.2,18.29,44.06,36.56,88.12,54.58,132.3,16.78,41.14,35.94,81.27,51.46,122.94,2.96,7.94,3.86,16.32,6.34,24.34,1.13,3.64-1.34,7.37-4.76,8.49-3.71,1.21-7.18-.41-9.38-4.01-9.25-15.12-15.96-31.44-22.87-47.68-22.79-53.6-46.26-106.91-68.1-160.91-8.81-21.78-17.69-43.54-26.37-65.37-1.29-3.24-2.34-3.61-5.39-1.81-12.38,7.33-24.87,14.48-37.45,21.45-7.61,4.22-13.93,10.35-21.87,14.09-4.33,2.03-8.02,2.15-10.45-.79-2.66-3.21-1.78-6.77,1.44-10.65,8.89-10.74,21.4-16.38,32.7-23.68,9.68-6.26,19.77-11.9,29.77-17.67,2.16-1.24,2.66-2.29,1.69-4.7-3.1-7.65-5.96-15.4-8.79-23.16-.77-2.12-1.99-3.02-4.22-3.52-14.03-3.14-27.97-6.7-42.05-9.64-6.05-1.26-10.77-5.01-16.25-7.28-3.45-1.43-4.16-5.05-2.89-8.46,1.31-3.53,4.31-4.29,7.95-4.39,14.27-.42,27.73,4.09,41.54,6.46,1.54.26,3.09.45,4.64.67.2.11.41.22.61.33,0-.31.01-.62.02-.93Zm53.1,34.26c-3.84-.96-6.69-1.71-9.57-2.38-2.8-.65-5.51-1.85-8.57-1.75q3.89,12.27,14.74,6.18c.84-.47,1.66-.99,3.41-2.04Z"></path><path d="m705.4,950.7c-34.27,10.04-69.02,17.15-104.87,18.26-19.08.59-38,3.56-57.07,4.62-31.55,1.75-62.94-.35-94.36-2.68-37.38-2.78-74.25-9.7-111.53-13.31-12.91-1.25-25.56-4.12-37.85-8.36-2.28-.79-4.9-1.36-6.61-2.88-7.01-6.24-15.04-5.18-23.26-4.06-6.85.94-13.37-.69-19.39-3.85-5.46-2.86-7.7-9.14-5.79-14.98,2.45-7.52,5.6-14.64,11.73-20,1.75-1.53,2.08-2.99.72-5.11-2.3-3.57-2.74-7.78-3.12-11.87-2.75-29.77,1.7-58.79,9.45-87.42,1.57-5.79,4.15-11.22,8.26-15.75,1.86-2.06,2.49-3.52-.26-5.83-5.41-4.54-5.11-11.09-4.69-17.4.3-4.64,1.88-9.03,4.8-12.59,3.7-4.5,8.42-7.23,14.62-5.81,4.43,1.02,9.09,1.49,13.25,3.19,4.99,2.04,9.14,1.39,13.69-1.05,20.64-11.05,42.24-19.71,64.83-25.93,10.8-2.97,21.67-4.66,32.91-3.19,2.8.37,4.93,1.66,7.53,4.31-.32-28.01.04-55.02-.95-82.02,7.51,7.2,14.69,14.71,21.31,22.74-.04,22.23-.17,44.47-.12,66.7.07,30.48-1.15,60.98.71,91.45.44,7.3-.59,14.49-2.98,21.45-1.32,3.85-3.91,5.9-8.04,5.57-3.96-.32-6-2.77-6.82-6.52-1.81-8.25-2.28-16.61-2.52-25.03-.77-27.5-.23-55.01-.53-82.51-.02-1.43.64-3.1-.81-4.38-3.64,3.93-8.54,5.07-13.34,6.23-9.68,2.34-19.38,4.54-28.9,7.52-21.09,6.6-41.25,15.51-61.3,24.69-4.55,2.08-8.97,3.18-13.98,1.35-3.31-1.21-6.95-1.48-10.41-2.31-1.82-.44-1.98.2-2.18,1.88-.75,6.61.94,13.05-.66,19.95-2.49,10.75-3.95,21.82-6.15,32.69-3.85,19.03-7.24,38.06-6.22,57.59.31,5.83,1.21,11.62.96,17.48-.11,2.69-1.76,5.23-.89,7.99,1.24,3.96.2,6.99-2.71,10.03-2.73,2.86-5.03,6.7-5.25,10.46-.11,1.87,4.91,1.68,7.09,3.53.21.18.47.32.73.44,3.48,1.64,8.05,3.34,10.85,2.63,5.53-1.39,10.51-.32,15.54.58,15.27,2.73,30.39,6.53,45.86,7.73,40.91,3.17,81.44,9.98,122.4,12.66,25.76,1.69,51.5,2.49,77.31.72,22.32-1.53,44.55-4.45,66.88-5.27,25.58-.94,50.2-6.31,74.66-13.12,6.26,5.86,11.8,12.38,17.43,18.81Z"></path><path class="cls-1" d="m438.76,659.72c-6.63-8.03-13.8-15.54-21.31-22.74-13.02-14.36-26.45-28.33-40.11-42.08-39.48-39.74-79.08-79.37-117.05-120.57-18.54-20.12-37.6-39.77-55.8-60.21-2.3-2.58-5.02-4.62-7.75-6.68-4.73-3.59-5.92-8.82-3.09-13.06,2.88-4.33,8.72-5.48,13.59-1.88,5.83,4.31,11.4,9.03,16.69,13.99,25.56,24.02,49.24,49.9,73.98,74.74,39.13,39.28,78.48,78.35,116.76,118.47.78.82,1.7,1.49,2.56,2.23,7.11,7.57,14.22,15.15,21.33,22.72.82.98,1.6,2.01,2.47,2.94,21.76,23.52,43.66,46.92,65.28,70.56,33.73,36.89,67.3,73.94,100.89,110.95,11.77,12.97,23.41,26.04,35.12,39.07,4.93,6.05,9.95,12.02,15.79,17.24.67.91,1.28,1.88,2.03,2.71,7.63,8.46,15.26,16.92,22.93,25.35,9.78,10.73,19.6,21.43,29.41,32.14,4.98,6.43,10.48,12.4,16.14,18.24,11.56,13.14,23.17,26.25,34.68,39.43,12.08,13.84,24.01,27.81,36.14,41.61,3.6,4.1,6.16,8.88,9.42,13.19,2.76,3.66,2.19,7.72-.94,10.34-2.98,2.5-6.93,1.9-10.42-.96-20.28-16.59-37.09-36.51-54.41-55.97-12.3-13.83-25.1-27.22-37.67-40.8-5.64-6.43-11.18-12.96-17.43-18.81-2.89-3.32-5.71-6.72-8.69-9.96-15.24-16.57-30.52-33.11-45.79-49.65-5.26-6.38-10.69-12.62-16.69-18.32-.85-1.13-1.62-2.32-2.57-3.36-20.51-22.54-41.01-45.08-61.56-67.58-33.81-37-68.47-73.23-101.93-110.54-3.89-4.34-7.48-8.96-11.97-12.74Z"></path><path class="cls-1" d="m82.84,830.09c-5.51-.09-8.86-5.19-6.87-9.96,2.05-4.91,5.57-8.39,10.13-11.14,42.43-25.63,83.8-52.99,126.61-78.03,49.06-28.69,97.85-57.84,147.82-84.96,7.8-4.23,16.05-7.3,24.41-10.14,3.41-1.16,6.23-.11,8.33,2.63,2.15,2.81,2.11,5.9.07,8.74-2.42,3.38-5.52,6.12-8.87,8.59-11.87,8.72-25.07,15.23-37.8,22.49-36.99,21.12-73.82,42.53-111.14,63.04-36.5,20.06-70.82,43.64-106.69,64.7-11.92,7-23.88,13.91-35.76,20.96-3.31,1.97-6.97,2.33-10.22,3.08Z"></path><path class="cls-1" d="m508.62,296.13c-.16,5.32-4.6,8.17-10.01,7.45-13.1-1.74-24.67-7.55-36.49-12.89-50.09-22.65-100.68-44.15-151.09-66.04-9.58-4.16-18.63-9.12-27.05-15.26-3.32-2.42-4.43-6.07-2.82-9.35,1.65-3.37,5.28-4.89,9-3.7,15.3,4.89,30.59,9.81,45.53,15.74,32.04,12.71,63.4,26.99,94.85,41.08,19.37,8.68,38.59,17.64,57.64,27,5.61,2.76,10.92,6.14,16.33,9.29,2.66,1.55,4.02,3.95,4.12,6.69Z"></path><path d="m903.57,983.55c-6.47.05-10.48-6.59-7.36-12.41,2.95-5.51,6.4-10.62,10.64-15.36,20.4-22.78,29.66-49.75,29.32-80.21-.14-12.38-.95-24.78,1.04-37.11,1.63-10.08,5.7-19.02,12.08-26.94,2.48-3.08,5.62-4.42,9.43-2.62,3.78,1.79,4.81,5.04,4.15,8.92-.43,2.52-.86,5.09-1.7,7.49-4.41,12.62-5.1,25.65-4.32,38.8,1.73,29.22-2.98,57.03-17.65,82.72-7.11,12.45-15.09,24.07-27.51,32.07-6.17,3.98-6.34,4.64-8.12,4.65Z"></path><path d="m419.89,128.11c-.97-7.41,1.95-14.8,4.06-22.29,4.21-14.93,9.4-29.5,16.37-43.41,6.65-13.27,17.03-21.48,31.46-25.36,11.54-3.11,22.81-7.12,34.97-7.05,4.56.03,9.11-.04,13.58,1.06,5.13,1.26,7.48,3.75,7.48,7.9,0,4.02-2.28,6.01-7.05,7.84-11.21,4.3-23.3,3.62-34.7,6.61-5.08,1.33-10.06,3.02-15.06,4.65-4.77,1.56-6.93,5.68-9.05,9.73-8.72,16.68-15.88,34.01-20.32,52.32-1.61,6.66-5.41,12.15-8.14,18.2-1.43,3.17-4.49,4.23-7.94,3.45-3.49-.79-5.34-3.14-5.62-6.62-.17-2.12-.03-4.27-.03-7.05Z"></path><path d="m905.4,833.63c-.94,12.07,1.92,23.77,3.35,35.63,1.87,15.55,4.16,31.09-.41,46.62-5.53,18.78-17.81,32.16-33.96,42.29-3.4,2.13-7.6,3.12-11.55,4.18-3.23.87-5.89-.66-7.52-3.54-1.66-2.93-1.2-5.78.97-8.3,5.74-6.66,11.58-13.18,17.93-19.33,13.25-12.83,18.63-28.49,15.65-46.98-1.79-11.09-2.99-22.28-4.31-33.45-.94-7.87-.26-15.63,2.08-23.23,1.03-3.33,2.75-6.24,5.25-8.67,2.35-2.28,5.14-3.13,8.22-1.84,3.12,1.3,4.29,3.98,4.31,7.23.01,3.13,0,6.26,0,9.39Z"></path><path d="m468.55,148.9c1.77-15.44,4.13-30.76,11.46-44.75,9.21-17.58,28.27-25.49,47.43-19.92,2.05.6,4.12,1.12,6.12,1.84,3.42,1.24,5.33,3.66,5.28,7.42-.05,3.57-1.93,5.93-5.17,7.07-3.5,1.23-7.17,1.73-10.89,1.87-3.27.13-6.54.6-9.8.53-7.58-.18-11.81,4.04-14.37,10.53-4.2,10.64-6.49,21.8-8.39,33-1.05,6.2-4.15,11.43-6.56,16.99-1.22,2.82-3.99,4.06-7.11,3.67-3.08-.39-5.72-2.14-6.03-5.19-.44-4.39-2.17-8.57-1.96-13.06Z"></path><path d="m633.49,872.28c-18.32,4.74-37.06,6.15-55.85,6.53-25.21.51-50.46.41-75.53-2.48-14.53-1.67-28.91-4.69-43.35-7.14-6.43-1.09-11.05-5.67-16.3-8.92-2.98-1.85-3.16-5.4-1.65-8.47,1.63-3.31,4.58-3.9,8.24-3.88,21.45.14,41.89,7.54,63.24,8.41,34.89,1.42,69.75,2.23,104.5-2.36,6.01,5.71,11.43,11.94,16.7,18.32Z"></path><path d="m407.68,848.96c4.61-.19,9.13.14,13.05,2.95,3.12,2.24,5.04,5.16,3.89,9.13-1.12,3.89-4.06,5.36-7.99,5.87-7.48.97-14.59,3.63-21.66,6.08-8.33,2.88-16.97,2.67-25.45,3.93-3.35.5-5.99-1.45-7.22-4.82-1.19-3.24-.26-6.1,2.4-7.95,12.17-8.46,25.44-14.15,40.42-15.19.85-.06,1.71,0,2.56,0Z"></path><path d="m406.34,821.57c-10.01-1.8-18.9-6.68-26.81-13.4-2.27-1.92-4.39-3.94-6.96-5.52-3.61-2.22-4.6-6.18-2.85-9.64,1.61-3.19,5.27-4.31,9.15-3.6,12.98,2.4,23.96,8.32,33.25,17.66,2.77,2.79,4.33,5.61,2.76,9.47-1.48,3.64-4.44,4.95-8.54,5.02Z"></path></svg> 