<?xml version="1.0" encoding="UTF-8"?> <svg xmlns="http://www.w3.org/2000/svg" id="Layer_1" viewBox="0 0 1080 1080"><defs><style>.cls-1{fill:#fb6935;}.cls-2{fill:#030303;}</style></defs><path class="cls-2" d="m816.34,274.1c14.57-.39,29-2.41,43.42-4.13,9.51-1.13,18.4,7.72,18.06,17.94-3.24,96.4-5.77,192.81-6.52,289.27-.34,44.28-.05,88.57-.38,132.86-.2,26.32-1.05,52.63-1.65,78.95-.11,4.8-.52,9.61-1.89,14.23-.82,2.77.05,3.23,2.68,3.45,19.43,1.62,38.95,2.28,58.23,5.42,5.05.82,10.03,1.95,14.79,3.82,3.39,1.33,6.38,3.33,7.63,6.99,1.79,5.21-2.35,10.4-8.1,10.14-53.94-2.42-107.89-4.61-161.89-5.47-26.75-.42-53.45-3.55-80.21-4.51-41.16-1.48-82.35-2.36-123.54-.59-1.99.09-3.49.7-4.94,2.05-2.41,2.23-5.61,2.71-8.17,1.05-2.77-1.8-5.36-1.72-8.35-1.51-77.54,5.27-155.04,10.93-232.83,11.74-56.83.59-113.65,1.52-170.47-.52-12.07-.43-24.11-1.22-36.12-2.66-5.76-.69-10.69-3.8-16.25-5.18-3.37-.84-4.91-4.29-4.26-7.87.72-3.94,3.37-5.96,7.4-6.51,18.85-2.56,37.66-.52,56.46.51,15.95.87,31.89.44,47.83.19,1.95-.03,3.02-.38,2-2.63-1.44-3.18-1.52-6.62-1.54-10.02-.25-43.35-2.13-86.69-1.03-130.05.19-7.29.72-14.54,2.78-21.57,2.2-7.51,7.21-11.48,15.02-12.29,22.68-2.33,45.47-1.74,68.21-2.56,18.56-.66,37.02-3.24,55.63-3.17,5.11.02,10.22-.01,15.32.3,2.76.17,3.79-.3,3.59-3.39-1.25-19.77-2.02-39.57-3.88-59.31-1.12-11.87-1.49-23.83,1.14-35.6,2.58-11.58,9.47-16.21,21.3-14.8,27.24,3.25,54.61,4.92,82.01,4.25,22.27-.54,44.5-2.64,66.76-3.76,4.96-.25,10.23-1.92,14.79,1.65,1.47-1.56.79-3.14.75-4.55-.89-28.18-1.28-56.35.4-84.51.52-8.69,1.77-17.25,6.95-24.68,2.67-3.83,6.14-6.09,10.93-5.82,26.49,1.49,52.41-3.57,78.47-6.94,10.89-1.41,21.75-3.08,32.62-4.62,4.36-.62,8.78-.48,12.86,1,4.65,1.69,4.99-.12,5.09-4.16.74-30.95,1.69-61.9,2.66-92.85.14-4.5,1.11-8.9,2.67-13.14,3.34-9.08,8.16-12.43,17.7-11.33,10.13,1.16,20.19,2.99,30.3,4.38,4.43.61,8.92.84,13.38,1.25,17.44,2.62,34.83,1.96,52.19-.74Zm30.83,22.34c-7.06.74-14.12,1.45-21.17,2.21-18.62,2.01-37.22,3.41-55.91.7-10.23-1.48-20.51-2.56-30.77-3.82-3.79-.7-7.63-1.23-11.36-2.17-2.46-.62-2.83.28-2.96,2.41-.74,12.2-2.3,24.4-2.3,36.59-.02,43.97-.29,87.94,1.46,131.9,1.77,44.24,2.76,88.52,4.09,132.78-.11,3.85-.31,7.71-.31,11.56.02,43.94.15,87.88.09,131.83-.02,18.87-.3,37.75-.73,56.62-.07,3.08,1.22,3.15,3.44,3.27,12.2.65,24.39,1.61,36.6,2.06,21.95.81,43.91,1.34,65.86,1.99,4.63.21,9.27.27,13.88.7,2.61.24,3.28-.46,2.72-2.98-1.56-6.98-1.77-14.11-1.71-21.22.4-47.78-.51-95.56.37-143.33.18-10.04.56-20.09-.42-30.11.13-1.21.35-2.42.37-3.64.4-29.2-.55-58.4.37-87.59.16-5.13,0-10.27,0-15.41.07-.92.17-1.85.19-2.77,1.01-42.66,2-85.33,3.01-127.99.55-23.34.92-46.68,1.83-70,.18-4.7-1.15-5.23-4.88-4.15-.59.17-1.17.38-1.75.57Zm-149.33,109.65c-4.28,2.42-7.27,4-10.56,4.88-3.28.88-6.53,1.91-9.86,2.56-31.67,6.13-63.72,8.98-95.87,10.77-2.99.17-4.34.7-4.31,4.08.06,6.65-.51,13.3-.58,19.96-.38,37.63.06,75.25.85,112.88,1.61,77.41.42,154.84.59,232.26,0,3.82.47,5.2,4.9,5.02,16.86-.68,33.74-.96,50.63-.66,22.76.4,45.53-.47,68.27,1.18,1.85.13,3.76.88,3.64-2.72-.98-31.73-2.02-63.46-2.44-95.19-.49-37.47-.18-74.94-1.11-112.42-1.24-49.54-4.11-99.02-4.14-148.59,0-10.96,0-21.91,0-34Zm-147.59,125.44c-5.69,6.9-12.73,10.03-20.64,11.54-8.68,1.66-17.48,2.41-26.28,2.89-24.87,1.36-49.74,3.28-74.67.79-12.31-1.23-24.66-2.18-36.99-3.19-1.4-.11-3.69-1.34-3.28,1.94,1.55,12.47.6,25.09,1.82,37.54,3.55,36.13,3.45,72.32,2.77,108.55-.7,37.3-3.94,74.5-4.15,111.82-.03,5.9-.08,5.88,5.79,5.72,52.16-1.37,104.11-6.28,156.18-9.36,3.4-.2,3.88-1.49,3.8-4.53-.51-20.27-1.03-40.54-1.13-60.82-.32-67.34-1.08-134.67-3.21-202.91Zm-321.55,281.44c.35.06.65.18.95.17,44.12-.99,88.24-2,132.36-2.93,2.64-.06,3.39-.89,3.4-3.49.02-10.37.07-20.75.45-31.12,1.44-39.31,1.71-78.64,2.36-117.96.09-5.48-.02-5.45-5.27-4.39-13.13,2.66-26.48,2.44-39.77,3.13-22.24,1.16-44.43,3.82-66.78,1.64-7.05-.69-14.23-.5-21.33.47-2.03.28-2.74.75-2.81,3.05-1.15,39.01-1.01,78.02-1.02,117.04,0,11.39.19,22.87-2.55,34.38Z"></path><path class="cls-2" d="m752.7,123.39c-11.8,1.42-22.82,2.69-33.81,4.11-2.69.35-5.24.32-7.71-.8-8.2-3.72-9.47-14.55-2.36-20.33,4.81-3.91,10.48-6.45,16.53-6.74,17.09-.8,33.53-5.75,50.48-7.33,9.12-.85,17.83,0,26.1,4.22,4.57,2.34,6.67,7.46,4.28,12.12-1.14,2.24-1.35,4.28-1,6.63,2.38,15.89-1.84,31.02-5.39,46.23-2.87,12.34-5.7,24.69-8.38,37.07-1.08,4.98-4.34,8.5-7.49,12.04-2.38,2.67-5.82,2.93-9.06,1.89-3.29-1.05-5.53-3.42-6.05-6.99-.69-4.74-1.11-9.43-.36-14.3,2.36-15.28,4.01-30.67,7.78-45.71.25-1,.2-2.08.35-3.91-1.93,1.63-3.33,2.79-4.7,3.97-28.54,24.61-58.64,47.05-91.44,65.77-7.79,4.44-15.47,9.13-22.84,14.23-18.31,12.67-38.5,19.32-60.7,20.52-23.34,1.26-46.65,3.25-70.06,2.89-10.99-.17-21.97-.7-32.91-1.8-2.99-.3-4.6.43-6.17,3.23-4.5,8.06-7.01,16.82-9.66,25.53-12.8,42.02-32.12,80.64-59.82,114.89-13.47,16.65-29.51,29.65-51.26,33.6-14.01,2.54-28.16,4.27-42.4,4.88-24.59,1.06-49.2,1.83-73.8,2.82-16.71.68-33.33,2.4-49.91,4.61-2.38.32-4.01,1.21-5.07,3.39-17.14,35.4-39.87,67.27-62.56,99.17-7.26,10.21-13.96,20.81-21.06,31.14-9.75,14.18-21.56,26.7-32.47,39.94-3.51,4.26-9.14,5.26-12.89,2.78-4.17-2.75-5.78-8.72-3.56-13.65.69-1.54,1.55-3.04,2.55-4.41,28.26-38.56,52.9-79.58,80.51-118.58,10.91-15.4,19.09-32.53,29.51-48.29,6.1-9.23,14.38-14.24,24.64-16.64,16.97-3.97,34.35-4.42,51.63-5.54,32-2.08,64.07-2.27,96.11-2.31,14.95-.02,26.73-5.5,36.76-15.75,20.91-21.35,36.73-46.17,49.42-73.09,8.04-17.07,14.64-34.73,21.16-52.42,4.04-10.96,10.04-20.92,16.5-30.53,4.67-6.94,12.36-8.89,20.18-9.97,12.73-1.76,25.37.18,37.97,1.39,20.45,1.97,40.8,1.66,61.17-.82,5.37-.66,10.79-1.13,16.19-1.34,6.4-.24,12.25-2.02,17.26-5.94,24.16-18.93,50.43-34.78,75.84-51.88,17.49-11.78,33.82-25.05,50.3-38.14.43-.34.75-.83,1.67-1.87Z"></path><path class="cls-2" d="m1058.17,768.63c-2.2,45.06-9.44,86.83-22.02,127.66-1.95,6.34-3.9,12.71-6.27,18.9-13.91,36.29-41.79,56.66-77.64,67.99-5.56,1.76-11.52,1.46-16.95,4.21-3.23,1.64-6.74-.27-8.83-3.38-2.2-3.28-2.15-6.78.34-9.92,4.78-6.02,10.35-10.93,17.93-13.34,18.07-5.74,34.27-14.58,48.04-27.94,14.51-14.08,21.49-31.75,26.08-50.8,9.05-37.49,15.09-75.47,18.81-113.84.46-4.76,1.53-9.46,2.38-14.17.75-4.17,3.24-6.65,7.51-6.89,4.54-.25,7.3,2.29,8.45,6.44,1.57,5.69,2.52,11.49,2.16,15.06Z"></path><path class="cls-2" d="m1003.19,757.53c-1.76,29.02-2.12,58.38-10.47,86.42-11.27,37.84-35.67,63.31-75.02,72.79-7.89,1.9-15.67-.53-23.48-.9-3.43-.16-5.47-3.34-5.69-6.97-.24-3.83,1.63-6.47,5.06-8.08,9.61-4.51,19.06-9.37,29.07-13.02,5.51-2.01,10.54-5.16,15.48-8.36,21.48-13.9,33.93-33.25,36.23-59.01,1.98-22.19,4.81-44.29,6.41-66.52.47-6.51,2.63-12.71,4.14-19.01.81-3.4,3.42-5.46,7.19-5.44,3.95.02,6.36,2.13,7.45,5.77,2.19,7.28,3.99,14.63,3.63,22.34Z"></path><path class="cls-2" d="m180.92,234.94c5.58-.03,10.38-.08,14.97,1.71,3.94,1.54,6.68,4.01,6.43,8.57-.25,4.39-3.25,6.12-7.07,7.48-18.87,6.71-38.97,8.13-58.11,13.79-18.35,5.43-33.69,15.05-46.63,28.99-14.09,15.18-25.89,31.91-35.41,50.31-4.26,8.24-8.87,16.3-15.69,22.85-1.28,1.23-1.86,3.17-2.83,4.74-2.27,3.69-6.24,5.12-9.97,3.64-3.62-1.43-5.8-5.55-4.47-9.58,13.55-41.12,35.02-77.07,69.82-103.79,20.66-15.86,45.17-22.43,70.38-26.75,6.4-1.1,12.83-2.1,18.58-1.96Z"></path><path class="cls-2" d="m208.27,312.93c.02,4.69-3.17,8.16-8.67,9.37-14.17,3.12-28.34,6.21-42.51,9.36-18.62,4.14-33.33,14.32-44.64,29.48-4.52,6.06-8.75,12.37-12.79,18.77-4.51,7.15-10.5,12.93-16.44,18.78-2.81,2.78-6.26,3.46-9.75,1.29-3.38-2.1-4.46-5.18-3.58-9.18,4.53-20.57,15.78-37.37,29.51-52.76,7.17-8.04,15.55-14.67,25.17-19.5,16.33-8.19,33.07-15.31,51.56-17.12,8.6-.84,16.99.26,25.22,2.6,4.29,1.22,6.58,4.4,6.91,8.89Z"></path><path class="cls-1" d="m816.34,274.1c-17.36,2.69-34.75,3.35-52.19.74,5.1-2.82,10.58-4.19,16.39-4.12,12.02.14,24.09-.08,35.8,3.39Z"></path><path class="cls-1" d="m848.77,500.78c.01,5.14.17,10.28,0,15.41-.92,29.2.02,58.4-.37,87.59-.02,1.21-.24,2.42-.37,3.64-1.47,1.18-.85,2.86-.97,4.34-.53,6.63-.95,13.28-1.46,19.91-1.64,21.6-4.6,43.08-5.32,64.77-.61,18.4-1.57,36.8-3.21,55.16-1.57,17.57-3.47,35.12-3.9,52.77-21.95-.65-43.91-1.17-65.86-1.99-12.21-.45-24.4-1.41-36.6-2.06-2.22-.12-3.51-.19-3.44-3.27.43-18.87.71-37.74.73-56.62.06-43.94-.07-87.88-.09-131.83,0-3.85.2-7.71.31-11.56.14-2,.41-4.01.39-6.01-.55-61.28,2.31-122.54,1.32-183.82-.33-20.11-1.76-40.21-1.04-60.33.63-17.67,1.93-35.24,10.4-51.35,10.26,1.26,20.54,2.34,30.77,3.82,18.69,2.7,37.3,1.31,55.91-.7,7.06-.76,14.12-1.48,21.17-2.21,4.54,10.41,4.99,21.18,3.26,32.27-2.85,18.36-4.64,36.77-3.48,55.45,1.12,18.06,1.29,36.17.34,54.28-.62,11.73-1.69,23.48-.64,35.25.8,9.02.13,18.16,2.13,27.09Z"></path></svg> 