<?xml version="1.0" encoding="UTF-8"?> <svg xmlns="http://www.w3.org/2000/svg" id="Layer_1" viewBox="0 0 1080 1080"><defs><style>.cls-1{fill:#fa6835;}.cls-2{fill:#060606;}.cls-3{fill:#fefefe;}</style></defs><path class="cls-1" d="M157.62,883.54c-2.41-2.33-4.82-4.66-7.22-6.98,.46,.03,.7,.28,.72,.77-8.58-10.36-14.39-22.13-17.82-35.11,6.49-2.66,9.41-7.86,9.89-14.5,1.97-26.87,3.93-53.74,5.69-80.62,3.61-55.29,4.88-110.8,14.93-165.48,7.09-38.57,17.45-75.99,41.24-108.33,8.52-11.58,19.4-20.85,28.93-31.42,10.09-11.2,16.57-23.95,17.11-39.16,1.95-54.82,2.34-109.66,1.32-164.5-.21-11.14-1.41-22.3-6.94-32.39-1.77-3.22-3.47-7.1-8.41-4.23,11.65-19.17,41.37-26.04,59.43-13.57,2.18,1.5,6.18,2.17,4.89,6.5-7.43-2.79-14.76-6.09-23-5.3-7.05,.68-13.06,3.06-13.4,11.28-.26,6.36,7.03,10.96,15.21,9.85,4.27-.58,8.4-2.22,12.68-2.74,4.93-.59,9.08-.36,6.74,7.09-2.42,7.71-2.46,15.92-1.84,23.98,3.39,44.53,3.96,89.19,4.45,133.77,.27,25.22,8.3,45.56,23.97,64.36,16.66,19.97,28.97,42.45,34.26,68.23,5.37,26.14,8.25,52.63,9.45,79.25,4.15,92.29,4.44,184.66,5.68,277.01,.07,5.43,.79,10.46,3.82,15.02-8.29,8.04-16.59,16.07-24.88,24.11-25.16-4.52-50.56-2.97-75.75-1.59-35.98,1.98-70.95,.76-103.38-17.48-6.03-3.39-12.47-3.6-17.77,2.19Z"></path><path class="cls-2" d="M379.4,876.31c-3.03-4.56-3.75-9.59-3.82-15.02-1.24-92.35-1.53-184.72-5.68-277.01-1.2-26.62-4.08-53.11-9.45-79.25-5.29-25.78-17.6-48.25-34.26-68.23-15.68-18.8-23.7-39.13-23.97-64.36-.48-44.58-1.06-89.24-4.45-133.77-.61-8.06-.58-16.27,1.84-23.98,2.34-7.45-1.82-7.68-6.74-7.09-4.27,.51-8.41,2.16-12.68,2.74-8.19,1.11-15.47-3.49-15.21-9.85,.34-8.22,6.35-10.61,13.4-11.28,8.24-.79,15.57,2.51,23,5.3,0,0-.03-.03-.03-.03,.82,3.33,.63,7.98,6.39,4.94,10.65,9.59,11.65,22.67,12.17,35.57,1.86,45.96,4.38,91.92,4.55,137.9,.08,23.05,9.89,40.04,24.3,55.93,16.19,22.93,29.01,47.36,34.22,75.3,4.83,25.87,7.98,51.96,9.14,78.21,2.51,56.86,3.87,113.76,4.31,170.68,.25,32.47,1.2,64.93,1.83,97.39-.11,4.88-.04,9.78-.36,14.65-.79,11.85-7.48,15.86-18.48,11.27Z"></path><path class="cls-2" d="M237.06,201.59c4.95-2.87,6.65,1.01,8.41,4.23,5.53,10.08,6.73,21.25,6.94,32.39,1.02,54.84,.63,109.68-1.32,164.5-.54,15.21-7.02,27.96-17.11,39.16-9.53,10.58-20.41,19.85-28.93,31.42-23.79,32.34-34.15,69.77-41.24,108.33-10.05,54.68-11.31,110.19-14.93,165.48-1.76,26.88-3.72,53.75-5.69,80.62-.49,6.64-3.41,11.84-9.89,14.5-10.78-1.13-12.56-8.96-12.14-17.47,.97-19.46,2.51-38.89,3.8-58.33,2.34-35.49,4.33-71,7.08-106.46,4.04-52.13,10.15-103.9,29.36-153.18,8.17-20.95,20.22-39.52,33.59-57.37,1.48-.81,2.93-1.64,2.34-3.74,0,0-.05,.16-.05,.16,7.28-3.77,11.87-10.51,17.57-16,9.86-9.49,14.37-20.96,14.32-34.92-.09-25.38,.68-50.77,1.4-76.15,1.03-36.15-2.69-72.39,1.96-108.47,0,0-.07,.15-.07,.15,2.05-1.27,2.21-3.31,2.24-5.41,.79-1.15,1.57-2.31,2.36-3.46Z"></path><path class="cls-2" d="M816.45,857.32c-.17-8.53-2.18-15.5,3.79-21.06,2.17-2.03,.58-4.75,.17-7.07-6.56-37.14-13.82-74.16-19.65-111.41-7.64-48.87-17.45-97.49-18.03-147.26-.61-52.34,9.24-102.67,28.29-151.29,4.94-12.6,12.12-23.71,23.99-31.04,2.32-1.43,4.95-3.5,7.67-1.69,2.73,1.82,1.82,5.13,1.35,7.73-1.55,8.56-4.91,16.53-8.39,24.48-25.73,58.79-35.23,120.25-28.89,183.98,6.53,65.6,19.08,130.29,31,195.07,2.8,15.2,4.83,30.53,7.11,45.82,.75,5.03,.56,10.06-3.52,13.79-2.89,2.64-1.85,5.58-1.45,8.6,.98,7.49,.05,14.84-2.06,22.02-.66,2.26-1.14,5.23-4.04,5.71-2.88,.47-4.56-2-5.71-4.05-5.98-10.66-14.24-20.6-11.63-32.34Z"></path><path class="cls-2" d="M675.73,164.21c-2.7-6.06-7.62-10.45-11.62-15.54-2.48-3.16-5.09-6.18-6.42-10.13-1.68-4.98-.94-9.23,3.21-12.49,3.99-3.14,8.76-2.7,12.06,.32,16.03,14.66,28.9,31.68,33.23,53.42,1.11,5.55-6.83,12.35,2.47,17.43,1.23,.67-1.29,4.46-2.76,6.39-3.99,5.23-8.91,9.6-14.66,12.7-11.7,6.3-23.48,12.5-35.51,18.13-6.09,2.85-13.49,4.07-17.25-3.19-3.69-7.12,.94-12.66,7.13-15.96,12.17-6.51,24.62-12.5,37.41-18.93-38.14-22.45-78.88-33.71-122.89-31.73-52.7,2.36-98.27,22.63-138.26,56.38-4.01,3.38-7.44,7.51-12.33,9.77-4.32,2-8.54,1.85-12.04-1.57-3.81-3.72-4-8.12-1.61-12.78,1.9-3.68,4.88-6.4,7.95-8.99,77.53-65.51,163.4-83.93,259.25-45.81,3.72,1.48,7.42,3.02,11.13,4.54,.93,.39,1.97,1.64,2.7-.03,.17-.39-.77-1.27-1.2-1.93Z"></path><path class="cls-2" d="M472.55,830.4c-2.94,3.25,.51,5.47,1.44,7.97,3.44,9.26,7.43,18.33,10.64,27.67,2.32,6.75,3.22,14.05-5.37,17.21-7.89,2.9-12.18-2.36-14.86-8.83-6.97-16.84-13.91-33.7-20.46-50.7-3.78-9.81-1.35-17.24,7.14-21.29,20.23-9.66,41.15-17.15,63.99-17.06,3.8,.01,9.22-1.59,10.83,2.69,1.75,4.65-3.28,7.51-6.35,10.35-5.56,5.13-12.39,7.97-19.59,10.14-3.75,1.13-8.02,.95-12.16,4.55,24.91,11.99,49.94,20.72,77.33,20.94,54.27,.45,104.61-13.39,150.9-41.76,10.03-6.15,20.13-12.13,31.14-16.42,2.03-.79,4.22-1.98,6.1-.34,2.15,1.88,1.46,4.38,.75,6.9-2.94,10.45-9.83,17.98-18.51,23.65-43.28,28.25-90.54,44.47-142.24,49.25-43.14,3.98-82.83-5.48-120.89-24.67-.32-.39-.64-.77-.97-1.16-.07,.4-.14,.79-.22,1.19,.45-.09,.89-.18,1.34-.28Z"></path><path class="cls-2" d="M1064,775.41c-.29,7.34-1.69,13.37-8.95,14.3-8.22,1.05-11.63-5.16-13.05-11.79-4.78-22.37-8.95-44.87-13.62-67.27-15.53-74.42-30.51-148.99-51.67-222.08-8.98-31.01-24.3-58.79-46.71-82.38-5.36-5.64-9.95-11.84-13.32-18.9-1.21-2.53-3.15-5.35-1.46-7.78,2.11-3.04,5.83-1.56,8.61-.78,10.4,2.91,19.05,8.85,26.27,16.75,25.19,27.55,41.11,60.18,50.69,95.87,21.17,78.84,38.49,158.56,53.92,238.71,2.98,15.48,6.32,30.88,9.3,45.33Z"></path><path class="cls-2" d="M724.64,541.32c-1.11-44.81,3.99-86.19,22.79-125.14,7.74-16.04,18.66-29.9,28.76-44.32,3.57-5.09,4.92-9.62,3.67-16.18-5.83-30.73-15.37-60.5-22.41-90.91-2.81-12.14-1.36-17.95,5.35-19.84,6.48-1.82,12.74,2.83,15.65,13.75,8.92,33.43,18.56,66.71,24.73,100.82,1.57,8.68-2.26,15.6-6.98,22.36-12.22,17.47-25.36,34.3-33.51,54.38-13.45,33.11-16.76,67.7-16.14,102.9,.51,29.12,2.33,58.18,5.79,87.13,1.13,9.41-2.54,15.92-9.13,16.71-6.79,.81-11.37-4.12-12.67-14-3.92-29.83-5.74-59.81-5.91-87.66Z"></path><path class="cls-2" d="M845.51,146.05c12.5,.37,18.99,6.38,23.57,15.17,7.47,14.35,11.74,29.85,15.82,45.36,13.05,49.57,23.61,99.72,33.85,149.93,.19,.91,.24,1.85,.45,2.75,1.68,7.18,.49,13.63-7.38,15.54-8.42,2.04-12.44-3.45-14.06-11.03-2.33-10.87-4.62-21.74-6.9-32.62-9.77-46.52-19.75-92.99-33.23-138.62-2.27-7.7-3.37-17.35-9.42-21.69-6.72-4.82-14.5,2.99-21.92,4.83-9.62,2.37-19.06,5.34-29.18,3.92-2.15-.3-4.6-.08-5.7-2.31-1.31-2.65,.43-5.02,2.13-6.56,3.64-3.31,7.52-6.43,11.65-9.1,12.9-8.34,27.65-11.8,40.33-15.56Z"></path><path class="cls-2" d="M81.44,833.61c.87,15.76,2.08,31.51,2.51,47.28,.34,12.32,5.85,21.78,14.22,30.14,22.95,22.93,51.84,35.35,81.7,45.89,11.47,4.05,16.83,8.84,15.08,15.43-1.98,7.46-9.32,9.78-21.33,5.76-31.25-10.46-60.94-23.95-85.83-46.28-15.26-13.7-25.48-29.55-26.27-51.11-1.05-28.47-3.02-56.88-.46-85.36,.76-8.48,3.49-16.27,7.75-23.56,1.2-2.05,2.23-4.85,5.29-4.41,2.82,.41,3.58,3.12,4.52,5.39,2.29,5.49,3.44,11.22,3.44,17.16,.02,14.55,0,29.09,0,43.64-.21,0-.42,.02-.63,.03Z"></path><path class="cls-1" d="M398.25,850.4c-.63-32.46-1.58-64.92-1.83-97.39-.43-56.92-1.8-113.82-4.31-170.68-1.16-26.25-4.31-52.34-9.14-78.21-5.22-27.94-18.03-52.37-34.22-75.3,20.22,8.28,33.52,23.88,43.8,42.32,19.12,34.33,22.79,71.51,19.44,109.88-4.07,46.59-7.53,93.26-8.2,140.01-.42,29.06,4.56,58.04,3.39,87.2-.58,14.54-1.47,29.06-8.92,42.17Z"></path><path class="cls-2" d="M663.91,515.66c7.79-38.66,13.79-81.02,30.78-120.63,3.46-8.07,8.8-14.91,14.86-21.18,3.98-4.13,5-8.57,3.81-14.38-4.05-19.68-7.52-39.49-11.21-59.25-1.34-7.18-.38-14.27,1.64-21.12,1.76-5.97,4.86-7.58,9.26-1.67,6.03,8.11,9.79,17.27,11.88,26.97,4.03,18.74,7.53,37.6,11.15,56.42,1.63,8.46-.34,16.65-6.08,22.56-19.18,19.74-24.69,45.18-30.64,70.46-5.24,22.27-10.56,44.52-13.46,67.29-.87,6.86-4.11,13.01-12.45,12.14-8.31-.87-9.85-7.27-9.56-17.62Z"></path><path class="cls-2" d="M37.65,845.55c1.1,21.94,2.12,43.88,3.35,65.82,.55,9.72,5.4,17.58,11.72,24.64,18.79,20.97,41.35,37.12,65.6,51.08,4.54,2.61,9.56,4.65,12.56,9.25,2.01,3.09,4.18,6.33,1.87,10.27-2.12,3.62-5.54,4.6-9.44,4.8-4.15,.21-8.08-.74-11.61-2.7-29.37-16.34-56.59-35.47-78.45-61.41-9.74-11.56-14.65-24.94-14.79-40.04-.22-22.58-3.7-45.07-1.99-67.71,.69-9.08,2.82-17.72,8.07-25.3,3.61-5.22,6.84-5.97,9.38,1.13,3.5,9.8,4.04,19.93,3.73,30.18Z"></path><path class="cls-2" d="M883.2,908.71c-11.04,.69-20-.17-28.82-1.87-6.9-1.34-12.88-4.83-11.58-12.94,1.19-7.48,7.71-9.63,14.26-8.83,59.98,7.39,114.21-11.23,166.88-36.73,10.15-4.91,20.32-8.91,31.81-8.84,5.77,.03,6.35,2.71,4.17,7-2.14,4.2-5.64,7.3-9.19,10.35-13.65,11.72-30.36,17.57-46.48,24.65-39.25,17.23-79.96,27.68-121.05,27.22Z"></path><path class="cls-2" d="M157.62,883.54c5.3-5.79,11.74-5.58,17.77-2.19,32.43,18.23,67.4,19.45,103.38,17.48,25.19-1.38,50.58-2.94,75.75,1.59,3.41,2.15,9.89,1.45,9.72,6.65-.14,4.44-5.64,5.94-9.47,7.9-5.59,2.87-11.73,4.56-17.79,4.57-17.1,.04-33.65,5.58-50.54,5.54-39.92-.1-79.58-2.95-116.1-21.67-7.94-4.07-15.16-8.98-12.73-19.87Z"></path><path class="cls-2" d="M848.43,364.16c-.32,5.73,.19,10.99-1.73,16.11-1.9,5.09-4.41,5.58-7.96,1.71-6.9-7.51-10.98-16.59-12.87-26.38-9.1-47.05-17.95-94.15-26.74-141.26-1.69-9.06,1.61-15.45,8.06-16.16,8.2-.9,11.84,4.36,13.19,11.38,9.27,48.29,18.43,96.59,27.52,144.91,.62,3.32,.4,6.8,.54,9.7Z"></path><path class="cls-2" d="M524.05,96.45c4.89,1.24,15.4-1.24,16.97,6.08,1.39,6.52-8.67,9.14-14.62,11.94-11.23,5.3-23.49,7.65-35.42,10.78-30.16,7.92-58.32,20.28-84.76,36.7-1.84,1.14-3.68,2.31-5.61,3.26-6.23,3.06-12.2,3.37-16.17-3.34-3.74-6.32-.94-11.56,4.5-15.13,39.32-25.81,82.36-42.2,128.63-50.27,1.5-.26,3.09-.03,6.49-.03Z"></path><path class="cls-1" d="M232.53,210.31c-4.65,36.08-.93,72.32-1.96,108.47-.72,25.38-1.49,50.77-1.4,76.15,.05,13.96-4.47,25.43-14.32,34.92-5.7,5.49-10.3,12.23-17.57,16-.55-2.4,.9-4.27,2.01-6,13.05-20.36,15.55-42.98,16.71-66.6,1.85-37.45,.5-75,3.57-112.36,1.43-17.41,3.21-35.12,12.96-50.57Z"></path><path class="cls-2" d="M431.78,68.56c.75,.07,2.03,0,3.2,.32,3.19,.88,7.95,.11,8.88,3.76,.86,3.37-2.87,5.93-5.53,7.96-5.15,3.93-10.31,7.96-15.89,11.22-14.96,8.75-29.66,17.83-43.2,28.72-5.8,4.67-12.18,6.8-18.19,.56-4.75-4.93-2.73-12.1,4.74-18.13,12.53-10.12,25.83-19.12,39.92-26.95,7.96-4.43,16.49-6.89,26.07-7.47Z"></path><path class="cls-2" d="M151.12,877.33c-.02-.48-.26-.74-.72-.77-.31,.78-1.01,1.67-.84,2.33,.8,3.06,1.99,6.71-1.43,8.25-2.89,1.3-5.77-1.09-7.78-3.51-1.72-2.07-2.34-4.97-.68-6.86,2.71-3.08,5.95-1.94,8.91,.36,.56,.43,1.67,.15,2.53,.2Z"></path><path class="cls-1" d="M307.73,199.43c-5.76,3.04-5.56-1.61-6.39-4.94,4.05-.84,4.67,2.77,6.39,4.94Z"></path><path class="cls-1" d="M234.7,205.05c-.02,2.1-.19,4.14-2.24,5.41-.46-2.3,.77-3.9,2.24-5.41Z"></path><path class="cls-1" d="M197.33,445.68c.59,2.1-.86,2.93-2.34,3.74,.12-1.66,.49-3.16,2.34-3.74Z"></path><path class="cls-3" d="M675.73,164.21c.43,.66,1.37,1.53,1.2,1.93-.73,1.67-1.77,.41-2.7,.03,.5-.65,1-1.3,1.5-1.95Z"></path><path class="cls-3" d="M472.55,830.4c-.45,.09-.89,.18-1.34,.28,.07-.4,.14-.79,.22-1.19,.32,.39,.64,.77,.97,1.16,0,0,.16-.24,.16-.24Z"></path></svg> 