<?xml version="1.0" encoding="UTF-8"?> <svg xmlns="http://www.w3.org/2000/svg" id="Layer_1" viewBox="0 0 1080 1080"><defs><style>.cls-1{fill:#f96835;}.cls-2{fill:#070707;}</style></defs><path class="cls-2" d="M580.97,158.94c10.41-9.81,23.58-13.15,37.09-15.16,15.95-2.38,23.03,3.12,26.03,19.24,2.95,15.87,6.39,31.67,6.57,47.94,.03,2.66-.61,5.84,1.77,7.6,23.19-20.49,19.58-48.9,22.29-75.3,3-29.22,2.56-58.71,6.53-87.88,1.56-11.44,7.61-18.7,18.51-22.2,4.88-1.57,9.68-3.39,14.54-5.02,16.41-5.5,26.78-.55,31.04,16.01,5.4,20.97,8.84,42.35,11.53,63.84,.95,7.56,1.93,15.12,3.26,25.56,10.65-21.18,29.84-22.05,46.39-26.8,9.7-2.78,18.46,5.63,20.51,18.45,2.89,18.11,4.81,36.38,6.7,54.63,1.29,12.41,2.04,24.9,2.64,37.37,.55,11.45,4.33,21.34,11.86,30.05,28.66,33.17,30.25,73.59,29.96,114.34-.05,7.03-4.55,11.66-11.94,11.91-7.4,.25-12.02-4.14-12.79-11.09-1.65-14.95-2.47-29.99-3.68-44.99-1.55-19.18-7.74-36.79-20.41-51.28-14.12-16.16-18.86-34.89-19.93-55.71-1.13-21.98-3.8-43.89-6.17-65.79-.31-2.83,2.1-8.87-3.7-8.06-5.01,.7-11.67,.51-12.14,9.49-1.34,26.04-4.56,51.91-8.47,77.71-3.29,21.71-9.54,42.16-22.57,60.15-9.69,13.39-11.26,29.13-12.96,44.87-2.51,23.38,.38,47.07-4.08,70.31-1.05,5.5-.72,13.79-7.23,14.38-6.14,.55-8.35-7.31-10.67-12.58-1.9-4.33-3.86-8.96-4.23-13.58-2.64-32.35-2.27-64.59,6.46-96.17,1.45-5.24,3.42-10.74,6.64-15.01,16.07-21.34,21.97-45.89,24.86-71.81,2.36-21.16,5.21-42.24,6.35-65.66-5.81,6.6-11.34,10.84-18.66,7.24-7.95-3.92-9.56-11.83-10.35-19.52-2.48-24.1-6.49-47.91-11.59-71.45-10.57,.31-14.55,4.84-15.31,15.59-2.99,42.1-3.3,84.44-10.2,126.24-1.96,11.9-7.01,21.65-17.22,28.18-7.7,4.92-12.77,13.31-21.84,16.33-2.37,.79-2.45,2.6-2.04,4.38,3.53,15.3,2.6,31.36,17.59,43.28,20,15.9,22.86,41.01,27.26,64.43,3.87,20.57,5.85,41.43,7.33,62.3-.12,1.81-.4,3.64-.32,5.45,.34,8.18-1.76,15.15-11.02,16.18-9.89,1.1-13.37-5.84-14.81-14.18-.44-2.52-.56-5.11-.69-7.68-1.03-20.56-3.1-41.03-7.14-61.2-3.73-18.6-5.73-38.55-23.33-50.5-13.38-9.09-19.14-21.66-20.67-37-2.89-28.85-6.22-57.67-8.51-86.57-.76-9.57-4.54-9.92-11.82-7.19-4.48,1.68-6.04,4.57-6.17,9.16-.34,12.48-1.16,24.94-1.52,37.42-.64,22.02,.58,44.11-2.65,66.01-2.79,18.93-5.17,37.98-20.57,52.04-15.64,14.28-23.16,32.52-25.97,53.25-3.66,27.11-1.72,54.29-1.82,81.44-.04,10.72-.75,21.26-4.09,31.5-1.01,3.11-1.56,7.11-5.28,7.7-4.4,.71-6.08-3.5-7.94-6.51-3.88-6.31-6.37-13.24-7.33-20.59-3.79-28.91-2.82-57.94-.91-86.88,2.08-31.49,13.11-59.29,36.91-81.15,2.52-2.31,5.73-4.91,4.07-9.31,0,0-.09,.05-.09,.05,2.2,.33,1.91-1.24,1.94-2.56,3.9-8.75,4.46-18.12,5.16-27.46,2.39-5.96,1.33-12.24,1.54-18.37,1.12-32.39-.56-64.91,4.91-97.08,0,0-.2,.12-.19,.12,2.14,.24,2.49-1.26,2.77-2.84Z"></path><path class="cls-1" d="M564.93,307.08c1.66,4.41-1.55,7-4.07,9.31-23.81,21.85-34.83,49.66-36.91,81.15-1.92,28.94-2.88,57.96,.91,86.88,.96,7.35,3.45,14.28,7.33,20.59,1.85,3.01,3.54,7.22,7.94,6.51,3.71-.6,4.26-4.59,5.28-7.7,3.34-10.25,4.05-20.79,4.09-31.5,.1-27.15-1.85-54.33,1.82-81.44,2.8-20.74,10.33-38.98,25.97-53.25,15.39-14.05,17.78-33.1,20.57-52.04,3.23-21.91,2.02-44,2.65-66.01,.36-12.48,1.18-24.94,1.52-37.42,.13-4.59,1.69-7.48,6.17-9.16,7.27-2.73,11.06-2.39,11.82,7.19,2.3,28.9,5.63,57.71,8.51,86.57,1.53,15.34,7.3,27.92,20.67,37,17.6,11.95,19.6,31.9,23.33,50.5,4.04,20.17,6.11,40.64,7.14,61.2,.13,2.57,.25,5.15,.69,7.68,1.44,8.34,4.92,15.28,14.81,14.18,9.25-1.02,11.36-8,11.02-16.18-.08-1.81,.21-3.64,.32-5.45,3.63,20.99-.86,40.91-7.92,60.5-1.34,3.73-2.61,7.49-3.91,11.24-54.47,22.64-108.79,45.67-164.33,65.63-13.5-6.78-19.71-18.73-23.14-32.65,2.48-5.42,3.04-11.09,2.82-17.02-.8-22.01-4.96-43.36-11.99-64.19,.21-22.25-.99-44.73,7.18-66.03,11.36-29.64,30.09-52.84,59.72-66.08Z"></path><path class="cls-2" d="M317.65,1040.98c2.49,5.06,4.31,9.6,.74,12.24-2.92,2.16-6.91-.71-10.15-2.38-8.28-4.28-15.36-10.16-21.33-17.18-36.3-42.69-79.31-78.59-118.9-117.94-15.27-15.18-33.97-27.06-44.89-46.43-.82-1.46-2.01-1.53-3.58-1.64-15.38-1.09-18.02-3.63-18.02-18.95,0-26.09-.19-52.2,.71-78.27,2.49-71.64,3.95-143.27,1.53-214.93-.39-11.42,0-22.76,4.13-33.65,1.61-4.24,3.38-8.77,8.59-8.68,5.02,.09,5.68,5.16,7.11,8.76,5.09,12.8,6.41,26.24,6.81,39.92,2.44,82.7-.96,165.34-2.38,248.01-.14,8.08-.06,16.17-.23,24.25-.22,10.48-2.52,21.92,13.71,22.75,2.46,.13,4.99,2.97,7.12,4.95,45.64,42.65,91.43,85.15,135.57,129.37,10.1,10.12,19.73,20.79,27.18,33.18,1.69,2.81,3.6,6.69,6.95,1.52,4.67-7.22,12.35-8.81,19.71-10.88,66.67-18.72,133.31-37.61,198.25-61.74,103.05-38.29,207.94-71.16,311.69-107.38,10.44-3.65,21.1-6.33,32.33-5.45,3.98,.31,8.72-.3,10.61,4.12,2.1,4.92-2.63,7.16-5.48,9.65-10.97,9.6-24.14,15.04-37.75,19.76-89.98,31.18-181.01,59.34-270.29,92.53-78.02,29.01-157.54,53.19-237.74,75.28-3.49,.96-7.18,1.7-10.76,1.66-3.16-.04-6.31-1.3-11.23-2.43Z"></path><path class="cls-2" d="M498.03,439.18c7.03,20.83,11.2,42.18,11.99,64.19,.22,5.93-.34,11.6-2.82,17.02-12.93,7.41-20.75,3.87-22.84-11.04-1.88-13.42-2.21-27.01-5.17-40.34-3.66-16.47-10.21-31.33-21.99-43.59-12.2-12.7-15.7-27.12-14.98-45.08,1.97-49.14,.3-98.29-9.5-146.82-1.75-8.67-5.26-13.94-14.47-14.62-2.11-.15-4.2-1.23-6.19-2.12-7.19-3.17-7.93-6.52-.82-11.17,21.55-14.06,38.33-8.32,45.43,16.07,2.42,8.32,4.11,16.84,6.24,25.7,19.6-16.12,23.21-38.11,24.37-60.59,1.42-27.5,1.64-55.05,2.44-82.58,.65-22.31,6.58-30.52,27.6-38.53,.68-.26,1.31-.68,2.01-.88,27.54-8.18,42.62-9.37,46.73,27.17,2.01,17.85,5.05,35.58,7.31,53.4,.77,6.07,1.65,12.37-1.63,18.17-.99,2.25-1.97,4.5-2.96,6.75-14.19,1.6-19.34-3-21.44-19.13-2.37-18.16-4.66-36.34-7.23-54.48-.45-3.21,.75-7.84-4.07-8.89-8.18-1.78-19.53,7.15-19.79,15.58-.82,26.4-.9,52.84-2.34,79.21-1.36,24.93-3.33,50.19-20.58,70.4-8.38,9.82-12.63,21.01-16.45,33.01-7.21,22.66-9.66,45.47-7.4,69.14,.97,10.12-.24,20.53-1.23,30.73-.73,7.5,.96,13.68,6.15,19.08,9.72,10.11,17.09,21.87,23.61,34.2Z"></path><path class="cls-2" d="M530.34,553.05c55.54-19.96,109.86-42.99,164.33-65.63,48.57-19.65,97.13-39.31,144.03-62.79,11.88-5.95,24.11-10.88,37.55-11.62,3.04-.17,7.19-1.61,8.83,2.33,1.38,3.32-.96,6.33-2.94,8.98-8.14,10.92-19.41,17.78-31.3,23.74-51.17,25.66-104.56,46.25-157.14,68.68-97.12,41.43-196.92,75.93-295.15,114.47-17.05,6.69-33.77,14.22-50.64,21.37-2.36,1-4.67,2.13-7.05,3.08-8.23,3.31-16.73,5.67-22.55-3.53-4.4-6.97,.46-15.31,11.54-20.35,32.04-14.58,64.62-27.85,97.54-40.28,34.27-12.94,68.64-25.64,102.96-38.45Z"></path><path class="cls-2" d="M866.91,764.18c2.81,0,3.95-.19,5.01,.03,3.46,.73,8.24-.18,9.78,3.43,1.61,3.79-2.15,6.69-4.66,9.26-8.13,8.29-18.14,13.65-28.89,17.65-26.79,9.97-54.07,18.45-81.49,26.52-66.77,19.66-134.95,34.35-200.95,56.68-67.33,22.79-133.78,48-199.97,73.89-2.73,1.07-5.36,2.5-8.18,3.21-6.95,1.76-12.68-.57-15.57-7.06-2.89-6.49-1.01-12.73,5.24-16.18,6.7-3.69,13.99-6.34,21.11-9.25,126.08-51.44,255.55-92.41,387.51-125.75,27-6.82,53.33-16,79.54-25.41,10.78-3.87,21.8-6.38,31.52-7.03Z"></path><path class="cls-2" d="M187.82,445.06c4.41-33.81,11.63-68.64,41.62-90.35,22.89-16.56,29.13-37.87,30.84-63.06,2.85-42.12,5.73-84.24,8.59-126.36,1.29-18.9,29.16-38.21,47.36-32.82,7.57,2.24,10.83,8.11,13.07,15.05,8.59,26.63,10.85,54.58,17.09,81.7,2.05,8.92,3.35,18.01,4.77,27.06,1.12,7.16,4.51,12.89,9.32,18.24,5.84,6.49,12.66,12.36,15.58,21.08,2.1,6.28,.96,11.79-4.34,15.73-5.34,3.97-11.17,2.2-15.03-1.94-14.69-15.71-29.83-30.6-32.75-54.32-3.5-28.32-9.88-56.29-15.59-84.3-.63-3.11,1.58-10.07-5.9-9.28-6.52,.69-7.74,5.56-8.06,11.11-1.67,28.96-3.32,57.91-5.21,86.86-1.58,24.15-3.09,48.34-8.94,71.97-2.89,11.69-7.45,22.67-17.92,29.35-29.57,18.86-42.57,47.3-48.06,80.45-1.68,10.16-4.75,19.95-10.16,28.85-1.54,2.54-3.26,5.51-6.53,5.18-3.32-.34-4.24-3.82-5.29-6.48-2.86-7.25-3.51-14.94-4.45-23.73Z"></path><path class="cls-2" d="M374.11,768.35c-8.29,.25-13.46-1.88-15.39-8.61-1.78-6.19,1.13-11.02,6.15-13.99,4.67-2.76,9.93-4.65,15.11-6.37,111.52-37.09,223.56-72.73,330.92-121.22,33.07-14.93,65.9-30.3,98.17-46.87,11.14-5.72,22.66-10.41,35.46-10.71,2.9-.07,6.21-.53,7.89,2.56,1.74,3.18-.94,5.48-2.51,7.76-8.18,11.87-20.07,19.05-32.5,25.61-51.58,27.21-105.44,49.35-158.97,72.29-90.39,38.74-184.86,65.72-277.54,97.87-2.74,.95-5.65,1.4-6.78,1.68Z"></path><path class="cls-2" d="M1037.1,803.29c0,26.44,.31,52.89-.08,79.32-.43,29.48-12.96,53-36.71,70.45-34.7,25.5-72.3,46.11-110.64,65.45-7.91,3.99-16.1,5.26-20.8-4.24-4.73-9.57,1.68-15.2,9.33-19.21,33.14-17.36,65.68-35.62,97.08-56.09,24.8-16.18,36.42-37.52,36.21-67.03-.35-50.68,.69-101.36,.88-152.05,.05-12.59,.86-24.88,5.86-36.62,3.42-8.02,7.36-7.3,11.22-.65,7,12.07,9.25,25.51,9.43,39.15,.36,27.17,.11,54.35,.11,81.52-.63,0-1.26,0-1.88,0Z"></path><path class="cls-2" d="M918.93,557.08c-.89,62.95,3.2,120.09,8.58,177.17,1.52,16.09,2.67,32.21,3.76,48.34,.59,8.79,.38,18.14-11.22,19.1-11.36,.93-13.84-8.22-14.72-16.87-2.08-20.46-2.86-41.06-5.28-61.47-9.66-81.26-6.01-162.94-8.16-244.43-.31-11.74,.94-23.45,5.46-34.56,2.99-7.33,6.8-7.14,10.75-1.05,6.77,10.44,9.43,22.17,9.89,34.47,1.07,28.28,1.63,56.57,.94,79.31Z"></path><path class="cls-2" d="M417.65,256.64c-2.98,41.96-4.11,81.65-13.58,120.41-4.67,19.11-12.55,36.46-25.26,51.88-21.52,26.1-27.34,57.83-30,90.39-1.17,14.34-3.22,28.44-9.79,41.46-1.25,2.48-2.45,5.83-6,5.7-3.38-.13-4.83-3.21-5.93-5.84-3-7.13-5.18-14.53-5.11-22.37,.44-48.32,8.91-93.88,41.2-132.63,14.53-17.44,17.56-40.01,20.55-61.86,4.08-29.84,6.47-59.85,7.24-89.98,.15-5.86,.59-11.77,1.57-17.55,1.19-6.98,5.6-11.24,12.91-11,7.3,.24,11.59,4.7,12.09,11.81,.52,7.3,.12,14.67,.12,19.58Z"></path><path class="cls-2" d="M966.34,779.06c-1.86-17.97-3.99-35.93-2.55-53.94,.69-8.62,.99-21.64,9.25-22.45,9.2-.9,10.67,12.27,12.9,20.35,6.73,24.35,4.58,49.61,6.33,74.47,1.03,14.63,1.63,29.43-.37,44.04-3.37,24.63-16.56,43.67-35.68,58.73-23.16,18.25-48.71,32.68-75.25,45.36-7.86,3.75-16.32,5.29-20.93-4.19-4.58-9.42,1.97-15.22,9.51-19.24,21.68-11.55,43.38-22.92,63.49-37.29,22.64-16.18,35.47-36.35,33.45-65.06-.95-13.53-.16-27.17-.16-40.76Z"></path><path class="cls-2" d="M210.14,219.55c-.22,18.84-2.74,39.26-3.91,59.75-.97,16.83-8.45,29.21-20.81,39.48-8.75,7.27-17.86,14.11-26.35,21.66-17,15.12-29.8,33.22-37.25,54.88-.95,2.77-1.63,5.64-2.73,8.35-3.01,7.45-7.94,13.31-16.61,10.58-8.85-2.78-10.66-9.86-8.23-18.65,9.02-32.61,26.66-59.99,53.74-79.65,21.66-15.72,35.54-33.03,34.27-61.42-.93-20.79,1.83-41.75,2.93-62.63,.58-11.1,2.95-21.74,8.17-31.64,3.85-7.29,7.68-7.14,11.22,.21,5.56,11.53,6.49,23.97,6.63,36.47,.07,6.96-.63,13.93-1.07,22.62Z"></path><path class="cls-2" d="M139.08,191.56c-1.47,19.38-2.56,38.8-4.55,58.12-1.31,12.76-9.43,21.62-20.61,26.66-24.4,10.99-36.75,31.46-45.38,55.14-5.54,15.19-10.91,20.21-19.5,17.59-8.47-2.59-10.51-12.01-5.14-26.65,10.76-29.33,26.29-54.86,56.33-68.35,5.98-2.69,8.36-7.25,8.9-13.8,1.58-19.34,1.53-38.85,5.47-57.97,1.63-7.93,4.17-15.52,8.13-22.61,3.19-5.7,6.53-5.08,9.47,.03,5.68,9.85,6.71,20.77,6.88,31.85Z"></path><path class="cls-2" d="M154.91,501.29c5.24,1.06,9.16,3.72,12.64,7.05,36.08,34.42,72.65,68.27,112.08,98.91,10.2,7.93,17.78,18.4,22.78,30.53,3.24,7.86,.06,10.49-7.38,8.62-9.73-2.45-18.08-7.77-25.94-13.9-42.25-32.95-82.11-68.62-120.57-105.89-5.21-5.05-9.49-10.54-5.85-18.37,2.47-5.31,7.06-7.09,12.25-6.95Z"></path><path class="cls-2" d="M323.79,809.12c.64,12.09,1.33,24.18,1.87,36.28,.13,2.91-.01,5.87-.46,8.75-1.13,7.26-4.89,12.94-12.69,12.69-7.66-.25-11.5-6.12-12.4-13.26-1.02-8-1.37-16.09-1.84-24.15-2.18-37.73-4.28-75.47-6.45-113.2-.81-13.96-1.18-27.88,3.32-41.4,1.09-3.27,.86-8.03,5.55-8.33,4.22-.28,6.02,3.77,7.88,6.83,5.64,9.28,8.28,19.65,8.99,30.29,2.33,35.15,4.22,70.33,6.28,105.49-.02,0-.03,0-.05,0Z"></path><path class="cls-2" d="M250.55,732.81c-5.56-.9-11.34-3.07-16.94-5.8-14.36-7-25.78-17.91-37.3-28.57-6-5.55-7.81-12.99-1.91-19.53,5.6-6.22,12.87-5.02,18.72,0,15.47,13.27,33.04,24.65,42.31,43.8,1.94,4.01,5.82,10.4-4.88,10.09Z"></path><path class="cls-1" d="M568.8,170.33c.99-2.25,1.97-4.5,2.96-6.75,2.21-.64,4.43-1.28,6.64-1.92-5.48,32.17-3.79,64.69-4.91,97.08-.21,6.13,.85,12.41-1.54,18.38-1.42-9.71-3.37-19.39-4.15-29.16-2.07-25.88-9.22-51.89,1.01-77.63Z"></path><path class="cls-1" d="M580.97,158.94c-.28,1.58-.63,3.08-2.77,2.84,.03-1.82,1.18-2.55,2.77-2.84Z"></path><path class="cls-1" d="M564.84,307.13c-.54-1.75,.69-2.16,1.94-2.56-.04,1.32,.26,2.89-1.94,2.56Z"></path></svg> 