<?xml version="1.0" encoding="UTF-8"?> <svg xmlns="http://www.w3.org/2000/svg" id="Layer_1" viewBox="0 0 1080 1080"><defs><style>.cls-1{fill:#f86835;}.cls-2{fill:#070707;}</style></defs><path class="cls-1" d="M787.39,685.17c11.95-.27,23.18,3.5,34.46,6.54,26.1,7.03,51.45,16.23,75.27,29.16,15.81,8.59,29.27,19.99,37.23,36.49,16.64,34.47,5.5,70-28.39,90.22-31.27,18.66-65.4,29.65-101.14,35.76-14.61,2.5-29.04,6.4-44,6.36,2.27-.77,4.47-1.74,6.78-2.26,41.22-9.34,82.48-18.51,121.18-36.26,4.09-1.88,8.39-3.47,11.55-6.85,3.71-3.97,6.42-8.38,3.71-14.02-2.49-5.16-7.16-5.98-12.29-5.86-4.3,.1-8.04,1.92-11.89,3.48-9.62,3.9-19.08,8.33-28.93,11.55-69.82,22.86-141.52,36.44-214.77,41.17-66.66,4.3-131.5-3.6-192.65-32.62-15.67-7.43-31.32-14.83-44.59-26.36-5.97-5.19-6.91-10.65-2.38-17.69,21.01,19.86,47.62,27.44,74.24,33.3,90.96,20.03,182.64,29.32,275.61,14.95,46.81-7.24,92.43-18.09,134.95-39.68,9.96-5.06,19.32-11.09,26.51-19.77,8.12-9.79,5.82-22.42-4.66-28.51-5.27-3.06-9.13-3.22-10.54,3.9-1.62,8.2-7.56,12.97-14.03,17.21-9.32,6.1-19.49,10.52-29.79,14.67-64.73,26.1-132.64,33.7-201.68,34.19-50.49,.36-100.11-7.68-149.6-16.7-25.32-4.62-50.17-10.67-72.85-23.29-10.06-5.59-10.59-9.32-4.65-19.2,7.63-12.7,19.53-20.45,32.15-27.23,45.66-24.52,94.12-39.95,145.67-46.26,71.84-8.79,142.48-4.33,211.9,16.73,14.25,4.32,28.45,8.92,43.41,10.19,3.6,.3,8.27,2.23,10.37-1.96,1.94-3.87-1.5-7.22-3.85-10.09-8.01-9.81-19.09-14.69-30.78-18.4-13.81-4.38-27.68-8.6-41.52-12.88Z"></path><path class="cls-2" d="M787.39,685.17c13.84,4.29,27.71,8.5,41.52,12.88,11.69,3.71,22.77,8.59,30.78,18.4,2.35,2.87,5.79,6.22,3.85,10.09-2.1,4.19-6.77,2.26-10.37,1.96-14.96-1.27-29.16-5.87-43.41-10.19-69.42-21.06-140.06-25.51-211.9-16.73-51.55,6.3-100.01,21.74-145.67,46.26-12.62,6.77-24.52,14.53-32.15,27.23-5.94,9.88-5.4,13.61,4.65,19.2,22.67,12.61,47.53,18.67,72.85,23.29,49.49,9.02,99.11,17.06,149.6,16.7,69.04-.49,136.94-8.09,201.68-34.19,10.3-4.15,20.46-8.57,29.79-14.67,6.48-4.24,12.41-9.01,14.03-17.21,1.41-7.12,5.26-6.96,10.54-3.9,10.48,6.09,12.77,18.71,4.66,28.51-7.19,8.68-16.55,14.71-26.51,19.77-42.52,21.59-88.14,32.44-134.95,39.68-92.97,14.37-184.65,5.08-275.61-14.95-26.62-5.86-53.23-13.44-74.24-33.3-4.53,7.04-3.59,12.51,2.38,17.69,13.28,11.53,28.92,18.93,44.59,26.36,61.15,29.01,125.99,36.92,192.65,32.62,73.25-4.73,144.94-18.31,214.77-41.17,9.85-3.22,19.31-7.65,28.93-11.55,3.85-1.56,7.59-3.38,11.89-3.48,5.14-.13,9.8,.69,12.29,5.86,2.72,5.64,0,10.05-3.71,14.02-3.16,3.38-7.47,4.97-11.55,6.85-38.7,17.75-79.96,26.92-121.18,36.26-2.31,.52-4.51,1.5-6.78,2.26-63.38,12.32-127.2,19.19-191.83,16.03-7.85-.83-15.76-1.4-23.58-2.55-58.61-8.63-113.58-26.96-162.43-61.42,0,0,.2,.17,.2,.17-.68-.73-1.37-1.45-2.05-2.18-13.15-12.58-16.15-27.05-8.1-43.58,1.63-1.08,2.62-2.44,2-4.52,0,0-.07,.12-.07,.12,6.31-6.61,14.7-12.2,18.53-20.02,9.09-18.59,22.85-31.9,40.24-42,28.21-16.38,58.21-28.64,89.38-38.13,44.33-13.5,89.94-17.99,135.99-19.4,43.29-.89,85.88,5.15,128.29,12.94Z"></path><path class="cls-2" d="M704.5,307.14c14.94-7.09,29.1-6.79,41.25,3.89,11.94,10.49,11.5,24.57,7.25,38.47-2.21,7.22-5.3,14.32-8.99,20.92-27.99,50.15-65.28,91.99-112.8,124.41-14.95,10.2-30.97,18.39-49.17,21.25-10.3,1.62-20.19,.28-28.69-6.09-6.35-4.76-10.04-11.36-5.39-18.96,4.64-7.58,11.62-6.48,18.1-2.17,7.77,5.17,15.46,2.53,22.93-.06,14.52-5.05,27.52-13.08,39.64-22.38,36.72-28.18,67-62.14,90.47-102.09,1.75-2.98,3.42-6.02,4.94-9.13,11.18-22.92,6.26-33.3-18.79-39.66-1.26-.32-3.03-.74-3.89-.14-12.12,8.35-18.69-.39-24.85-8.42-31.48-41.09-65.95-79.45-102.82-115.79-18.07-17.81-37.51-33.98-56.31-50.92-8.56-7.72-16.4-15.98-20.05-27.32-.8-2.49-3.26-5.02-.4-7.51,2.34-2.04,5.36-1.52,7.96-.66,9.29,3.1,17.77,7.89,25.24,14.12,52.31,43.66,100.74,91.18,143.17,144.63,7.11,8.96,14.37,17.81,21.56,26.71,4.13,5.11,8.52,10.06,9.62,16.9Z"></path><path class="cls-2" d="M507.53,434.84c-56.94,47.38-116.66,88.41-175.23,130.94-56.43,40.97-109.72,85.86-164.63,128.71-6.83,5.33-13.8,10.49-20.89,15.47-6.63,4.66-13.72,7.75-20.36,.22-5.01-5.68-2.86-13.86,5.96-20.28,31.99-23.26,62.26-48.67,92.99-73.5,65-52.53,133.65-100.14,200.97-149.55,17.6-12.92,34.67-26.54,52-39.83,9.44-7.24,19.77-12.83,31.32-15.78,8.52-2.17,10.84,.14,7.51,7.93-2.22,5.18-1.09,6.47,3.84,8.36,6.14,2.35,11.47,16.1,9.8,22.5-1.06,4.08-3.18,6.23-7.45,3.55-7.02-4.4-14.6-8.32-15.81-18.71Z"></path><path class="cls-2" d="M83.74,675.09c-8.55-.11-12.35-5.12-9.93-12.44,2.03-6.14,6.52-10.48,11.42-14.47,114.47-93.18,228.92-186.38,343.38-279.57,9.74-7.93,20.09-14.7,32.77-17.11,3.23-.62,6.55-1.12,8.55,1.73,1.88,2.67-.68,5.32-1.89,7.57-6.18,11.5-15.41,20.35-25.42,28.49-82.24,66.91-164.59,133.7-246.62,200.86-31.1,25.46-61.41,51.88-93.52,76.09-5.86,4.41-11.96,8.28-18.74,8.86Z"></path><path class="cls-2" d="M713.54,977.75c-4.56-.43-9.08,.09-13.12-2.75-3.72-2.62-5.7-6-5.12-10.6,.75-5.95,4.65-9.42,10.08-10.46,12.21-2.35,24.8-3.12,36.76-6.32,61.53-16.46,121.78-36.53,178.12-66.81,10.01-5.38,19.34-12.13,28.68-18.67,17.27-12.08,28.28-27.86,30.18-49.66,.77-8.83,4.05-17.47,6.52-26.09,.71-2.47,1.71-5.96,4.76-6.06,2.8-.09,4.69,2.66,6.2,5.05,9.28,14.68,7.79,30.37,4.15,46.2-4.13,17.97-14.56,31.97-28.41,43.57-26.26,22-56.07,38.01-87.77,50.52-47.56,18.77-95.21,37.4-145.46,48.05-8.44,1.79-17.06,2.71-25.6,4.03Z"></path><path class="cls-2" d="M1064,853.84c.04,17.14-6.4,31.68-17.65,44.33-16.11,18.11-35.48,32.14-56.7,43.37-41.25,21.83-82.1,44.94-128.4,54.86-18.25,3.91-36.83,6.31-55.33,8.95-7.14,1.02-13.46-1.4-14.98-9.41-1.61-8.44,3.3-13.16,11.01-14.82,19.63-4.21,39.97-4.55,59.32-10.2,52.95-15.45,101.57-39.99,146.84-71.26,6.5-4.49,12.11-10.35,17.77-15.94,10.23-10.1,14.55-22.37,13.07-36.82-1.06-10.34-.94-20.81-2.36-31.09-1.3-9.42,3.3-8.45,8.83-5.82,6.57,3.13,10.36,8.99,13.12,15.53,3.83,9.06,5.56,18.52,5.46,28.32Z"></path><path class="cls-2" d="M337.78,333.91c-.13,13.45-6.21,22.27-13.29,30.51-16.14,18.78-35.76,33.82-54.5,49.77-13.73,11.69-27.86,22.91-41.95,34.16-8.34,6.66-16.94,6.97-21.12,.66-5.49-8.26-1.05-14.44,5.27-19.71,24.23-20.22,48.59-40.29,72.76-60.58,8.5-7.14,16.25-15.09,23.34-23.68,5.58-6.76,5.57-12.94-.41-19.36-12.77-13.7-25.38-27.55-38.18-41.22-7.23-7.72-13.2-16.11-15.2-26.7-.55-2.95-1.68-6.73,1.13-8.79,2.82-2.06,6,0,8.68,1.64,9.8,5.96,19.29,12.39,27.21,20.77,11.67,12.35,23.22,24.83,34.58,37.47,6.84,7.61,11.95,16.18,11.7,25.07Z"></path><path class="cls-2" d="M351.7,229.6c-.11-7.12,1.96-13.84,5.34-19.84,25.29-44.97,54.98-86.41,96.45-118.2,8.29-6.35,17.35-11.37,27.16-14.94,4.22-1.53,8.54-2.79,13.17-1.87,5.99,1.19,10.33,4.08,10.94,10.65,.55,6-2.41,10.23-7.9,11.97-34.68,10.94-56.28,37.82-78.23,64.15-19.11,22.93-33.08,49.39-49.72,74.02-.19,.29-.31,.63-.53,.89-2.83,3.29-.23,12.22-8.72,9.47-7.63-2.46-8.25-9.41-7.96-16.3Z"></path><path class="cls-1" d="M659.09,672.24c-46.05,1.42-91.66,5.9-135.99,19.4-31.17,9.49-61.17,21.75-89.38,38.13-17.39,10.1-31.14,23.4-40.24,42-3.83,7.82-12.21,13.42-18.53,20.02-1.18-7.43,1.9-13.98,6.29-19.08,6.58-7.65,9.41-16.47,12.36-25.76,9.82-30.88,32.04-49.57,62.1-58.98,55.94-17.5,113.18-25.73,171.86-21.07,10.58,.84,21.02,3.51,31.53,5.34Z"></path><path class="cls-2" d="M257.75,338.83c-.59,8.15-3.79,14.8-9.24,19.81-24.49,22.54-49.14,44.92-73.99,67.07-5.69,5.07-12.98,6.67-18.48,.02-5.76-6.96-2.6-13.85,3.32-19.24,21.29-19.38,42.47-38.89,64.27-57.68,7.55-6.5,7.37-10.63-.34-16.14-6.19-4.43-11.65-9.87-17.81-14.35-8.04-5.85-14.23-13.16-18.89-21.82-2.26-4.21-6.91-9.8-4.06-13.15,3.95-4.64,10.67-1.11,15.37,1.33,21.12,10.94,39.57,25.49,55.44,43.24,2.85,3.18,4.01,7.21,4.4,10.92Z"></path><path class="cls-2" d="M105.19,771.11c-6.23-.24-11.96-1.76-17.26-4.29-27.07-12.94-50.07-30.66-65.71-56.86-6.18-10.36-8.49-21.25-3.53-32.63,2.73-6.28,7.3-11.96,15.05-9.76,7.77,2.21,7.71,8.51,5.44,15.25-1.57,4.65,1.09,8.84,3.32,12.52,15.08,24.85,36.09,42.42,64.14,51.03,7.36,2.26,14.23,5.13,12.86,14.6-1.17,8.13-7.37,10.1-14.31,10.14Z"></path><path class="cls-2" d="M464.55,322.56c.89,7.4-3.64,6.41-7.69,4.78-10.4-4.17-18.94-11.25-27.34-18.44-13.19-11.29-23.6-25.2-35.14-38.04-5.41-6.02-8.31-13.78-.84-20.17,7.09-6.06,13.76-1.82,19.04,3.76,13.76,14.55,27.4,29.23,40.8,44.11,6.11,6.79,9.38,15.17,11.17,23.98Z"></path><path class="cls-1" d="M382.98,841.77c48.85,34.46,103.82,52.79,162.43,61.42,7.82,1.15,15.73,1.71,23.58,2.55-26.64-2.05-53.27,5.31-79.8,.47-38.75-7.07-73.33-22.53-99.77-52.96-2.86-3.29-6.39-6.49-6.44-11.48Z"></path><path class="cls-1" d="M375.02,791.67c.63,2.08-.36,3.44-2,4.52-.19-1.88-.53-3.83,2-4.52Z"></path><path class="cls-1" d="M381.13,839.76c.68,.73,1.37,1.45,2.05,2.18-1.54,.08-1.96-.9-2.05-2.18Z"></path></svg> 