<?xml version="1.0" encoding="UTF-8"?> <svg xmlns="http://www.w3.org/2000/svg" xmlns:xlink="http://www.w3.org/1999/xlink" version="1.1" id="Layer_1" x="0px" y="0px" viewBox="0 0 1117.9 160.1" style="enable-background:new 0 0 1117.9 160.1;" xml:space="preserve"> <style type="text/css"> .st0{fill:#F26739;} </style> <g> <path class="st0" d="M0,0v160.1h160.1V0H0z M19.9,140.2V19.9h120.3v120.3H19.9z"></path> <g> <path d="M259.9,115c0,18.1-11.7,24.8-29.5,24.8h-0.3c-17.7,0-29.5-6.5-29.5-24.8V44.7c0-17.4,11.7-24.8,29.5-24.8h0.3 c17.7,0,29.5,7.4,29.5,24.8v21.4h-19.4V47.7c0-8.2-4-10.7-10.2-10.7c-6.2,0-10.2,2.5-10.2,10.7V112c0,8.2,4,10.7,10.2,10.7 c6.2,0,10.2-2.5,10.2-10.7V90.7h19.4V115z"></path> <path d="M333.9,115c0,18.1-11.4,24.8-29.1,24.8h-0.7c-17.7,0-29.1-6.5-29.1-24.8V21.2h19.4V112c0,8.4,3.7,10.7,10,10.7 s10-2.3,10-10.7V21.2h19.4V115z"></path> <path d="M399.7,138.4h-49.4V21.2h19.4V121h30V138.4z"></path> <path d="M452,38.3h-19.6v100.1H413V38.3h-19.6V21.2H452V38.3z"></path> <path d="M539.2,138.4l-5.5-8.2c-4.7,6.4-11.6,9.5-22.6,9.5h-1.2c-17.7,0-25.1-9.4-25.1-23.4V90.2c0-8.4,3.2-15.1,8-18.8 c-4-6.4-6.2-12.1-6.2-20.3V44c0-17.4,10.9-24.1,28.6-24.1h0.3c17.7,0,28.8,6.7,28.6,24.1v15.7h-18.4V46.4c0-8-4.7-10-10-10 c-5.4,0-10,2-10,10v4.5c0,6.2,0.5,8,7.2,18.2l15.6,23.9l5.2-18.6h17.7l-10.5,37.7l17.1,26.3H539.2z M522.6,113.5l-18.6-28 c-0.2,0.7-0.2,1.5-0.2,2.3V112c0,8.2,2,11.7,8.5,11.7S520.6,120.2,522.6,113.5z"></path> <path d="M637.1,77.5c10.2,1.7,13.7,9.5,13.7,18.6v19.3c0,14.7-11.4,23.1-29.1,23.1h-30.3V21.2h30.6c17.7,0,28.1,8.4,28.1,23.1 v14.7C650.2,67.4,646.5,76.3,637.1,77.5z M610.8,69.6h10.9c5.5,0,9-2.8,9-9V47c0-6.2-3.5-9-9-9h-10.9V69.6z M622.4,86h-11.5v35.7 h11.5c5.5,0,9-2.8,9-9V95.1C631.4,88.9,627.9,86,622.4,86z"></path> <path d="M694,19.9h1.3c17.7,0,29.5,7,29.5,24.8V115c0,17.7-11.7,24.8-29.5,24.8H694c-17.7,0-29.5-7-29.5-24.8V44.7 C664.6,26.8,676.3,19.9,694,19.9z M694.7,122.7c6.4,0,10.7-2.3,10.7-10.7V47.7c0-8.4-4.4-10.7-10.7-10.7 c-6.4,0-10.7,2.3-10.7,10.7V112C684,120.3,688.4,122.7,694.7,122.7z"></path> <path d="M799.5,115c0,18.1-11.4,24.8-29.1,24.8h-0.7c-17.7,0-29.1-6.5-29.1-24.8V21.2H760V112c0,8.4,3.7,10.7,10,10.7 s10-2.3,10-10.7V21.2h19.4V115z"></path> <path d="M867.8,38.3h-19.6v100.1h-19.4V38.3h-19.6V21.2h58.6V38.3z"></path> <path d="M878.5,138.4V21.2H898v117.2H878.5z"></path> <path d="M975,44.7V115c0,14.7-8,22.1-20.9,24.1v16.1h-17.7v-15.9c-13.2-2-21.6-9.4-21.6-24.3V44.7c0-17.9,11.7-24.8,29.5-24.8h1.3 C963.2,19.9,975,26.9,975,44.7z M955.5,47.7c0-8.4-4.4-10.7-10.7-10.7c-6.4,0-10.7,2.3-10.7,10.7V112c0,8.4,4.4,10.7,10.7,10.7 c6.4,0,10.7-2.3,10.7-10.7V47.7z"></path> <path d="M1049.6,115c0,18.1-11.4,24.8-29.1,24.8h-0.7c-17.7,0-29.1-6.5-29.1-24.8V21.2h19.4V112c0,8.4,3.7,10.7,10,10.7 s10-2.3,10-10.7V21.2h19.4V115z"></path> <path d="M1066,138.4V21.2h51.4v17.1h-32v32.1h26.8v17.1h-26.8v33.8h32.5v17.1H1066z"></path> </g> </g> </svg> 